<svg width="103" height="41" viewBox="0 0 103 41" fill="none" xmlns="http://www.w3.org/2000/svg">
<rect width="103" height="41" rx="10" fill="#0D606F"/>
<path d="M31.344 26V14.8H33.264V24.336H39.232V26H31.344ZM44.4715 26.144C43.7142 26.144 43.0262 25.9627 42.4075 25.6C41.7995 25.2373 41.3195 24.7467 40.9675 24.128C40.6155 23.4987 40.4395 22.7893 40.4395 22C40.4395 21.2107 40.6155 20.5067 40.9675 19.888C41.3195 19.2587 41.7995 18.7627 42.4075 18.4C43.0155 18.0373 43.7035 17.856 44.4715 17.856C45.2395 17.856 45.9222 18.0373 46.5195 18.4C47.1275 18.7627 47.6075 19.2587 47.9595 19.888C48.3115 20.5067 48.4875 21.2107 48.4875 22C48.4875 22.7893 48.3115 23.4987 47.9595 24.128C47.6075 24.7467 47.1275 25.2373 46.5195 25.6C45.9222 25.9627 45.2395 26.144 44.4715 26.144ZM44.4715 24.608C44.9088 24.608 45.2928 24.496 45.6235 24.272C45.9648 24.048 46.2315 23.7387 46.4235 23.344C46.6155 22.9387 46.7115 22.4907 46.7115 22C46.7115 21.4987 46.6155 21.056 46.4235 20.672C46.2315 20.2773 45.9648 19.968 45.6235 19.744C45.2928 19.5093 44.9088 19.392 44.4715 19.392C44.0342 19.392 43.6448 19.5093 43.3035 19.744C42.9622 19.968 42.6955 20.2773 42.5035 20.672C42.3115 21.056 42.2155 21.4987 42.2155 22C42.2155 22.5013 42.3115 22.9493 42.5035 23.344C42.6955 23.7387 42.9622 24.048 43.3035 24.272C43.6448 24.496 44.0342 24.608 44.4715 24.608ZM54.0984 29.504C53.533 29.504 52.973 29.4347 52.4184 29.296C51.8637 29.1573 51.3517 28.9653 50.8824 28.72L51.5064 27.392C51.9864 27.616 52.4237 27.7813 52.8184 27.888C53.2237 28.0053 53.6237 28.064 54.0184 28.064C54.6904 28.064 55.197 27.9147 55.5384 27.616C55.8904 27.3173 56.0664 26.8747 56.0664 26.288V24.928C55.7784 25.28 55.421 25.5573 54.9944 25.76C54.5677 25.952 54.1037 26.048 53.6024 26.048C52.9304 26.048 52.3224 25.8667 51.7784 25.504C51.2344 25.1307 50.797 24.64 50.4664 24.032C50.1464 23.4133 49.9864 22.7253 49.9864 21.968C49.9864 21.2107 50.1517 20.528 50.4824 19.92C50.813 19.312 51.261 18.8267 51.8264 18.464C52.4024 18.1013 53.037 17.92 53.7304 17.92C54.1997 17.92 54.637 18.0107 55.0424 18.192C55.4477 18.3733 55.7944 18.64 56.0824 18.992V17.984H57.8744V26.288C57.8744 27.3227 57.549 28.1173 56.8984 28.672C56.2477 29.2267 55.3144 29.504 54.0984 29.504ZM54.1624 24.544C54.5464 24.544 54.9037 24.4693 55.2344 24.32C55.565 24.16 55.8424 23.9413 56.0664 23.664V20.304C55.8317 20.0267 55.549 19.8133 55.2184 19.664C54.8877 19.5147 54.5357 19.44 54.1624 19.44C53.7037 19.44 53.293 19.552 52.9304 19.776C52.5784 19.9893 52.2957 20.288 52.0824 20.672C51.869 21.0453 51.7624 21.4827 51.7624 21.984C51.7624 22.464 51.869 22.9013 52.0824 23.296C52.2957 23.68 52.5784 23.984 52.9304 24.208C53.293 24.432 53.7037 24.544 54.1624 24.544ZM60.0884 26V17.984H61.8964V26H60.0884ZM61.0004 16.352C60.691 16.352 60.4244 16.2453 60.2004 16.032C59.987 15.808 59.8804 15.5467 59.8804 15.248C59.8804 14.9387 59.987 14.6773 60.2004 14.464C60.4244 14.24 60.691 14.128 61.0004 14.128C61.3097 14.128 61.571 14.24 61.7844 14.464C62.0084 14.6773 62.1204 14.9333 62.1204 15.232C62.1204 15.5413 62.0084 15.808 61.7844 16.032C61.571 16.2453 61.3097 16.352 61.0004 16.352ZM64.1356 26V17.984H65.9436V19.296C66.253 18.816 66.621 18.4587 67.0476 18.224C67.4743 17.9787 67.949 17.856 68.4716 17.856C69.0263 17.856 69.5116 17.9787 69.9276 18.224C70.3436 18.4587 70.669 18.7893 70.9036 19.216C71.149 19.6427 71.2716 20.144 71.2716 20.72V26H69.4476V21.232C69.4476 20.6453 69.2876 20.1813 68.9676 19.84C68.6476 19.488 68.221 19.312 67.6876 19.312C67.325 19.312 66.9943 19.3973 66.6956 19.568C66.4076 19.728 66.157 19.968 65.9436 20.288V26H64.1356Z" fill="white"/>
</svg>
