<?xml version="1.0" standalone="no"?>
<!DOCTYPE svg PUBLIC "-//W3C//DTD SVG 20010904//EN"
 "http://www.w3.org/TR/2001/REC-SVG-20010904/DTD/svg10.dtd">
<svg version="1.0" xmlns="http://www.w3.org/2000/svg"
 width="260.000000pt" height="260.000000pt" viewBox="0 0 260.000000 260.000000"
 preserveAspectRatio="xMidYMid meet">
<metadata>
Created by potrace 1.14, written by Peter Selinger 2001-2017
</metadata>
<g transform="translate(0.000000,260.000000) scale(0.100000,-0.100000)"
fill="#000000" stroke="none">
<path d="M911 2579 c4 -9 5 -20 1 -24 -4 -4 3 -5 16 -2 12 3 20 2 17 -2 -2 -4
6 -7 18 -6 12 1 29 -3 37 -9 13 -10 13 -9 0 8 -14 18 -13 19 3 13 25 -9 21 -4
-14 22 -18 13 -29 19 -25 13 3 -5 -1 -12 -9 -16 -8 -3 -17 -1 -20 4 -3 4 1 10
7 13 7 2 1 4 -14 3 -21 -1 -24 -4 -17 -17z m74 -19 c-3 -5 -13 -6 -21 -3 -12
4 -13 8 -3 14 15 9 32 2 24 -11z"/>
<path d="M891 2563 c-1 -13 4 -23 10 -23 5 0 7 -5 4 -11 -4 -6 -10 -8 -13 -5
-3 3 -12 0 -20 -7 -13 -10 -15 -9 -9 6 4 11 3 16 -3 12 -11 -7 -7 -46 6 -67 6
-11 5 -11 -8 0 -21 17 -35 -3 -32 -46 1 -29 0 -31 -11 -15 -7 10 -11 22 -8 28
3 5 -5 0 -18 -12 -19 -18 -21 -25 -11 -35 11 -11 12 -10 7 3 -4 10 -2 20 3 23
21 13 19 -23 -1 -41 -33 -30 -48 -37 -41 -19 3 9 10 14 14 11 5 -3 11 -1 15 5
7 11 -5 13 -29 4 -9 -3 -13 -10 -10 -15 3 -5 -3 -9 -13 -9 -15 0 -16 -2 -3
-10 8 -5 23 -7 33 -4 11 3 17 0 17 -10 0 -9 5 -16 10 -16 6 0 10 -5 10 -11 0
-8 -4 -8 -14 0 -11 9 -15 8 -20 -5 -4 -10 -1 -21 6 -26 23 -14 33 -9 12 7 -19
15 -19 16 1 13 11 -2 23 -7 27 -12 11 -16 37 -15 31 1 -5 12 -7 12 -15 1 -8
-10 -9 -9 -5 4 3 9 1 19 -6 22 -9 3 -9 5 1 5 7 1 21 -13 31 -30 11 -18 22 -26
25 -20 4 6 12 11 17 11 6 0 3 -7 -5 -16 -9 -8 -16 -21 -16 -27 0 -7 5 -4 11 6
10 16 13 17 27 4 10 -8 25 -13 35 -12 9 2 17 -1 17 -6 0 -5 -4 -9 -10 -9 -5 0
-10 -6 -10 -14 0 -8 -6 -17 -12 -20 -9 -3 -8 -5 2 -4 8 1 24 -3 35 -9 21 -12
26 -13 51 -13 9 0 12 -5 8 -12 -4 -7 -3 -8 4 -4 6 4 8 14 5 24 -6 15 -5 15 10
3 11 -9 17 -10 17 -2 0 6 -4 11 -9 11 -10 0 -9 26 2 36 4 4 7 12 7 18 0 6 -5
4 -10 -4 -9 -14 -12 -7 -9 16 1 12 -26 24 -46 19 -11 -3 -15 -2 -8 1 10 4 10
8 0 19 -7 7 -16 10 -21 7 -5 -3 -6 0 -2 7 4 6 12 8 18 5 7 -5 9 -1 5 9 -3 9
-2 19 4 23 6 4 3 14 -8 27 -14 17 -14 19 -1 9 14 -11 17 -10 20 5 3 15 5 14
10 -5 4 -15 3 -20 -5 -15 -7 3 -9 3 -5 -2 4 -4 3 -14 -3 -21 -7 -8 -6 -14 2
-20 7 -4 9 -3 6 3 -8 13 17 35 29 25 4 -4 3 0 -3 8 -6 8 -9 23 -8 33 2 9 -1
17 -6 17 -6 0 -7 5 -3 11 5 8 10 6 16 -5 5 -9 13 -14 19 -11 5 4 9 1 9 -5 0
-7 -6 -10 -13 -7 -8 3 -14 -1 -14 -9 0 -17 9 -18 26 -1 11 10 13 9 8 -5 -4
-11 -1 -15 11 -13 9 2 21 4 25 4 5 1 5 6 1 12 -5 8 -8 8 -14 0 -4 -7 -11 -2
-18 14 -9 20 -9 24 -1 19 7 -4 9 -3 6 2 -3 5 3 10 14 10 18 0 18 -2 5 -12 -9
-6 -16 -14 -16 -18 0 -12 24 -1 49 24 14 14 32 25 39 24 6 -1 16 -2 21 -3 6 0
9 -10 8 -20 0 -11 -7 -17 -14 -14 -12 5 -38 -14 -40 -30 -1 -4 -3 -11 -6 -15
-2 -4 -2 -1 -1 6 2 6 -1 12 -6 12 -13 0 -13 -27 -1 -35 5 -3 18 5 28 18 13 17
28 24 53 23 19 -1 40 -4 46 -8 12 -8 24 -1 24 14 0 5 -5 6 -12 2 -7 -4 -8 -3
-4 5 6 9 14 6 30 -11 12 -13 21 -26 19 -30 -2 -3 5 -5 14 -3 10 2 21 4 26 4 4
1 7 6 7 12 0 5 -4 8 -9 4 -18 -10 -21 13 -4 26 12 10 14 10 9 2 -4 -7 -3 -13
3 -13 17 0 21 17 7 29 -17 14 -52 -21 -40 -41 6 -10 4 -10 -9 1 -9 7 -17 18
-17 24 0 6 3 7 7 4 8 -8 43 22 43 36 0 6 -10 2 -22 -9 -16 -13 -19 -14 -10 -3
10 14 10 20 -3 33 -22 21 -28 20 -16 -2 5 -10 6 -24 2 -31 -7 -10 -9 -10 -14
2 -3 8 -17 15 -31 15 -16 0 -23 -5 -19 -12 4 -6 -1 -5 -10 3 -10 8 -30 15 -44
16 -15 0 -29 7 -31 14 -3 8 0 11 7 7 19 -12 50 -15 56 -6 3 4 -3 7 -12 5 -10
-1 -26 2 -36 7 -12 6 -19 5 -23 -7 -3 -8 -11 -12 -18 -8 -7 4 -7 1 1 -9 13
-15 8 -28 -9 -28 -5 0 -6 5 -2 12 4 6 3 8 -4 4 -6 -3 -12 -1 -15 6 -2 7 -3 5
-2 -4 2 -10 -1 -18 -6 -18 -5 0 -9 5 -9 11 0 6 -9 1 -20 -12 -10 -13 -19 -19
-20 -12 0 6 6 13 13 16 6 2 8 8 4 13 -4 5 -11 4 -15 -2 -4 -6 -17 -10 -29 -9
-15 1 -20 -3 -15 -14 7 -21 -2 -12 -17 17 -11 21 -11 23 6 13 12 -6 25 -6 34
0 14 8 10 11 -21 13 -8 1 -16 10 -18 21 -3 17 -1 17 7 5 9 -13 11 -13 11 3 0
24 -14 21 -34 -5 l-17 -23 12 25 c7 14 16 28 22 31 5 4 5 9 -2 13 -6 4 -14 0
-17 -8 -3 -9 -11 -16 -17 -16 -5 0 -2 9 8 20 14 15 22 17 39 9 21 -10 21 -10
1 6 -11 8 -25 13 -32 11 -20 -8 -44 5 -53 28 -9 21 -9 21 -9 -1z m34 -43 c3
-5 1 -10 -4 -10 -6 0 -11 5 -11 10 0 6 2 10 4 10 3 0 8 -4 11 -10z m-36 -26
c-6 -7 -15 -11 -21 -8 -5 3 -4 12 3 20 6 7 15 11 21 8 5 -3 4 -12 -3 -20z
m-42 -44 c1 -11 -2 -22 -6 -24 -6 -4 -7 26 -2 42 3 8 7 -1 8 -18z m413 -50
c-8 -5 -22 -9 -30 -9 -10 0 -8 3 5 9 27 12 43 12 25 0z m-457 -67 c-3 -7 -6
-13 -8 -13 -2 0 -5 6 -8 13 -3 8 1 14 8 14 7 0 11 -6 8 -14z m207 -93 c0 -5
-5 -10 -11 -10 -5 0 -7 5 -4 10 3 6 8 10 11 10 2 0 4 -4 4 -10z m8 -67 c-11
-14 -55 -10 -71 6 -5 5 -4 12 4 16 8 6 10 4 4 -5 -5 -9 -2 -10 14 -5 12 4 21
2 21 -4 0 -6 5 -11 10 -11 6 0 9 3 9 8 -1 4 -1 16 1 27 l1 20 8 -20 c5 -11 4
-25 -1 -32z"/>
<path d="M1175 2480 c-3 -5 -1 -10 4 -10 6 0 11 5 11 10 0 6 -2 10 -4 10 -3 0
-8 -4 -11 -10z"/>
<path d="M1213 2469 c15 -9 16 -13 5 -27 -12 -15 -11 -16 5 -3 13 10 15 17 6
27 -6 8 -17 14 -23 14 -6 0 -3 -5 7 -11z"/>
<path d="M1317 2458 c7 -8 9 -19 5 -23 -4 -5 -2 -5 4 -2 7 4 19 -4 28 -18 19
-28 36 -33 36 -9 0 8 -4 13 -9 9 -5 -3 -12 -1 -16 4 -3 6 4 8 17 5 13 -3 28
-6 35 -6 7 -1 9 -6 6 -11 -4 -6 -1 -7 7 -2 9 6 11 4 5 -6 -7 -11 -5 -11 11 1
18 14 18 14 4 -5 -15 -19 -15 -19 14 -1 16 10 25 12 21 5 -6 -8 -4 -10 5 -4 9
6 11 4 5 -5 -6 -9 -4 -11 5 -5 9 5 11 4 6 -4 -6 -9 -11 -9 -22 0 -8 6 -14 7
-14 2 0 -5 -7 -10 -15 -11 -8 -1 -22 -3 -30 -4 -8 -1 -23 -10 -32 -20 -16 -18
-16 -18 0 -12 9 3 17 10 17 16 0 5 5 6 10 3 6 -4 7 -12 3 -18 -4 -7 0 -6 10 2
16 12 22 8 18 -12 -1 -5 4 -5 10 -2 8 5 8 10 0 18 -17 17 -13 31 4 17 12 -10
18 -10 30 0 18 15 20 -1 3 -18 -9 -9 -9 -12 0 -12 7 0 12 5 12 12 0 6 3 8 7 5
3 -4 12 1 20 11 13 16 14 15 10 -6 -3 -13 -1 -20 5 -16 5 3 8 15 5 25 -7 24 5
24 27 0 10 -11 15 -25 10 -32 -4 -7 -3 -10 4 -5 6 3 10 15 9 26 -1 10 -5 16
-9 14 -10 -6 -11 10 -1 19 3 4 12 2 20 -4 8 -7 13 -8 13 -1 0 5 -7 13 -16 16
-9 3 -12 11 -8 18 4 8 3 10 -2 5 -5 -5 -9 -14 -9 -20 0 -5 -6 -12 -13 -15 -7
-2 -10 2 -6 11 5 15 -21 31 -36 22 -5 -3 -11 -1 -15 5 -4 6 -11 8 -16 5 -5 -4
-9 2 -10 12 0 16 -1 16 -8 -1 -8 -20 -48 -30 -57 -14 -3 4 3 8 13 8 11 1 4 7
-16 16 -19 8 -39 12 -45 10 -6 -2 -3 -5 7 -5 9 -1 17 -5 17 -10 0 -6 -9 -9
-20 -8 -11 1 -20 6 -20 12 0 5 -5 3 -10 -5 -5 -8 -10 -10 -10 -5 0 6 -10 16
-22 24 -20 13 -22 12 -11 -1z m213 -48 c6 -3 22 -7 35 -8 5 -1 -2 -10 -15 -19
-23 -16 -34 -20 -27 -9 1 2 -6 13 -16 24 -18 20 -18 20 0 17 10 -2 20 -4 23
-5z"/>
<path d="M1517 2399 c7 -9 9 -20 5 -25 -4 -4 1 -2 11 5 9 7 17 16 17 19 0 3
-3 2 -7 -1 -3 -4 -13 -1 -22 6 -14 10 -14 10 -4 -4z"/>
<path d="M1246 2444 c-5 -14 -4 -15 9 -4 17 14 19 20 6 20 -5 0 -12 -7 -15
-16z"/>
<path d="M1526 2438 c3 -4 9 -8 15 -8 5 0 9 4 9 8 0 5 -7 9 -15 9 -8 0 -12 -4
-9 -9z"/>
<path d="M1137 2402 c-14 -9 -29 -22 -32 -29 -4 -11 -1 -11 16 -1 12 7 30 18
41 24 11 7 16 14 11 17 -5 3 -21 -2 -36 -11z"/>
<path d="M1385 2386 c-11 -11 -21 -28 -22 -38 -2 -13 3 -11 22 8 14 14 30 22
35 19 15 -9 12 11 -2 22 -9 7 -19 3 -33 -11z"/>
<path d="M1635 2400 c26 -11 35 -12 35 -2 0 4 -12 8 -27 9 -24 1 -25 1 -8 -7z"/>
<path d="M1700 2400 c-9 -6 -10 -10 -3 -10 6 0 15 5 18 10 8 12 4 12 -15 0z"/>
<path d="M1755 2379 c-18 -9 -18 -9 3 -5 26 5 28 -1 5 -26 -9 -10 -18 -29 -20
-41 -2 -16 -1 -18 6 -8 7 10 13 11 27 1 18 -11 18 -11 1 -6 -16 5 -18 2 -12
-27 4 -17 12 -35 18 -39 7 -4 7 -12 -2 -22 -12 -15 -8 -20 12 -17 5 1 6 -3 2
-9 -4 -6 -14 -4 -29 5 -23 15 -23 15 -20 -16 3 -27 2 -30 -11 -19 -13 11 -14
10 -10 -2 3 -8 -3 -23 -15 -33 -11 -10 -20 -29 -20 -42 0 -14 -4 -21 -10 -18
-6 4 -8 10 -5 15 3 5 0 12 -6 16 -7 4 -9 3 -5 -4 3 -5 0 -13 -6 -15 -10 -4
-10 -6 0 -6 6 -1 12 -8 12 -17 0 -14 -1 -14 -16 0 -21 21 -30 20 -13 -1 12
-15 12 -16 -5 -10 -17 7 -17 6 -5 -9 13 -16 12 -16 -11 -4 -23 12 -24 12 -11
-3 11 -14 11 -18 -3 -23 -9 -3 -13 -11 -9 -18 3 -6 -4 -2 -17 9 -13 11 -20 14
-16 7 6 -9 2 -12 -10 -10 -11 2 -22 7 -25 12 -4 4 -10 3 -13 -3 -4 -6 -2 -11
4 -11 6 0 8 -5 5 -10 -4 -6 -10 -8 -14 -6 -4 3 -8 -1 -8 -9 0 -8 4 -12 8 -9 4
2 10 0 13 -5 4 -5 -5 -8 -18 -7 -23 3 -42 -16 -37 -37 1 -5 -3 -6 -9 -2 -7 4
-6 13 2 28 10 21 10 21 -7 7 -10 -8 -21 -14 -24 -12 -3 2 -7 -2 -9 -10 -2 -9
0 -8 8 2 9 12 11 12 8 1 -5 -17 -35 -23 -45 -9 -3 7 -1 8 5 4 17 -10 15 -1 -2
14 -13 10 -14 8 -11 -13 4 -21 2 -24 -20 -19 -14 2 -22 9 -18 15 3 5 2 7 -4 4
-6 -4 -9 -17 -8 -31 2 -19 -1 -23 -16 -19 -10 3 -16 9 -13 14 3 5 10 6 16 3 7
-4 8 -2 4 4 -5 9 -18 4 -42 -14 -19 -15 -34 -30 -34 -34 0 -4 -7 -10 -15 -14
-13 -5 -13 -3 0 18 13 19 13 23 1 23 -8 0 -12 -6 -8 -15 4 -11 1 -14 -11 -9
-10 4 -16 2 -14 -6 2 -13 -27 -14 -57 -1 -15 6 -17 4 -11 -6 5 -8 4 -11 -3 -6
-6 3 -15 -2 -21 -11 -6 -10 -11 -12 -11 -6 0 19 -23 11 -38 -12 -12 -19 -13
-19 -7 3 4 12 2 23 -4 23 -6 1 -17 2 -23 3 -7 1 -22 -6 -33 -15 -15 -13 -24
-15 -35 -8 -12 9 -11 10 5 4 15 -5 17 -3 8 6 -14 14 -34 3 -31 -18 2 -9 -4
-18 -12 -20 -11 -3 -12 -2 -3 4 10 7 10 13 -2 29 -13 16 -14 16 -9 1 5 -13 2
-16 -9 -11 -9 3 -18 13 -21 22 -2 10 -4 6 -3 -8 2 -20 -2 -24 -17 -22 -18 3
-18 2 -6 -15 8 -10 10 -15 6 -11 -5 4 -16 2 -25 -5 -13 -10 -14 -10 -5 3 16
23 11 45 -10 42 -12 -2 -16 1 -10 9 4 8 3 10 -5 5 -6 -4 -9 -11 -6 -16 3 -4
-2 -10 -10 -14 -8 -3 -14 0 -12 7 1 7 -10 10 -32 8 -25 -2 -31 0 -26 11 6 10
5 10 -5 1 -10 -9 -18 -8 -37 4 -21 14 -23 14 -17 -1 3 -9 10 -14 14 -11 5 3
11 1 15 -5 4 -6 10 -8 15 -5 14 9 23 -16 11 -28 -9 -9 -11 -8 -5 6 5 13 2 16
-10 11 -10 -4 -16 -1 -16 7 0 10 -3 10 -12 1 -7 -7 -17 -12 -23 -12 -7 0 -7 3
1 8 6 4 -1 18 -20 37 -30 30 -30 30 -13 3 16 -25 16 -27 0 -21 -12 5 -14 3 -8
-8 4 -8 5 -11 0 -7 -4 4 -17 3 -29 -3 -17 -8 -16 -6 4 10 21 16 23 22 12 33
-11 11 -12 10 -7 -3 4 -10 0 -16 -9 -16 -8 0 -13 4 -11 8 3 4 -2 9 -10 13 -8
3 -17 0 -21 -6 -5 -7 -2 -8 7 -3 12 8 12 6 0 -8 -15 -19 -26 -23 -15 -5 5 8 2
9 -12 4 -15 -6 -14 -2 6 21 14 15 16 20 6 11 -15 -13 -23 -14 -43 -5 -19 9
-26 8 -34 -4 -7 -11 -9 -9 -9 9 0 15 4 21 13 17 6 -4 1 3 -13 14 -14 11 -34
21 -44 21 -20 0 -20 0 0 14 10 8 16 18 12 22 -4 4 -16 1 -25 -7 -10 -7 -15
-10 -11 -5 4 5 0 22 -8 38 -13 26 -17 28 -32 16 -15 -11 -16 -11 -4 4 10 13
10 17 0 20 -8 3 -6 7 6 11 9 4 15 3 12 -1 -2 -4 3 -8 13 -8 10 0 18 6 18 13 0
7 -4 10 -9 7 -14 -9 -37 16 -31 34 3 10 1 13 -4 7 -4 -6 -18 -10 -30 -9 -12 1
-20 -3 -17 -7 3 -5 -3 -9 -13 -9 -15 0 -16 -2 -3 -10 10 -6 17 -5 23 5 4 8 13
15 18 15 6 0 7 -6 2 -12 -4 -7 -8 -16 -9 -20 -1 -5 -2 -11 -3 -14 0 -4 -7 -2
-13 3 -7 5 -19 8 -25 7 -7 -1 -19 -2 -25 -3 -9 -1 -10 -4 -2 -9 6 -4 14 -15
17 -26 5 -13 3 -17 -7 -13 -19 7 -42 -18 -26 -28 13 -8 -5 -35 -24 -35 -8 0
-7 3 1 8 7 4 9 13 4 21 -6 9 -10 5 -15 -15 -4 -16 -13 -35 -19 -42 -18 -22
-17 -41 1 -35 13 4 14 3 4 -5 -8 -5 -14 -13 -14 -17 0 -4 6 -12 14 -16 7 -5 8
-9 3 -9 -6 0 -11 -9 -12 -20 -1 -13 2 -18 9 -14 7 4 8 2 4 -4 -4 -6 -14 -9
-24 -6 -13 5 -14 4 -3 -4 7 -5 11 -14 7 -20 -3 -6 -2 -13 4 -17 6 -3 8 -17 6
-31 -3 -14 -1 -22 5 -19 5 4 7 11 4 16 -4 5 1 9 9 9 10 0 15 -8 13 -21 -1 -12
6 -26 18 -33 10 -6 26 -17 34 -24 11 -11 15 -11 22 0 6 9 9 9 9 1 0 -6 -4 -15
-10 -18 -5 -3 -10 -12 -9 -18 0 -9 2 -9 6 1 6 16 30 15 36 -2 4 -9 14 -12 26
-9 12 3 18 10 14 17 -4 6 1 5 10 -3 10 -7 16 -19 15 -25 -2 -6 1 -11 7 -11 5
0 9 3 8 7 -1 3 5 9 13 12 12 5 15 2 10 -11 -4 -10 -4 -14 0 -10 4 4 13 -2 21
-13 8 -11 19 -20 25 -20 7 0 3 7 -8 15 -10 8 -15 15 -10 15 5 0 3 7 -4 15 -8
9 -8 15 -2 15 6 0 14 -9 17 -20 3 -11 13 -20 21 -20 9 0 12 -5 8 -12 -4 -7 -3
-8 4 -4 6 4 9 14 6 24 -5 15 -5 15 6 -1 6 -9 8 -22 4 -28 -3 -6 3 -5 15 3 20
12 20 14 4 26 -9 6 -12 12 -7 12 6 0 15 -5 22 -12 15 -15 35 -19 91 -21 25 -1
46 -7 49 -14 2 -7 8 -13 13 -13 4 0 6 6 3 14 -3 8 0 17 7 22 8 4 10 3 5 -4 -4
-7 -2 -12 4 -12 6 0 8 -4 5 -10 -3 -5 -1 -10 4 -10 6 0 11 5 11 10 0 6 5 10
11 10 5 0 7 -4 4 -10 -3 -5 -1 -10 4 -10 6 0 11 5 11 11 0 6 6 9 14 6 7 -3 19
0 26 6 10 9 11 9 6 0 -3 -6 -2 -14 4 -18 6 -4 7 -12 3 -18 -3 -7 3 -3 15 7 12
11 20 22 17 25 -4 3 -10 -1 -15 -9 -6 -10 -10 -11 -10 -3 0 7 9 17 19 23 17 8
19 7 17 -15 -2 -13 1 -22 5 -19 5 3 9 12 9 20 0 8 4 14 10 14 5 0 7 -6 4 -14
-3 -8 0 -17 6 -21 6 -3 9 -1 8 6 -2 7 6 15 17 17 18 4 18 3 5 -14 -13 -16 -13
-17 0 -9 15 10 35 15 58 17 7 1 11 7 8 14 -2 6 1 20 8 29 11 15 12 13 11 -18
-1 -20 2 -34 7 -31 4 3 6 10 3 15 -4 5 -2 9 4 9 6 0 8 8 5 18 -5 14 -4 15 5 2
8 -10 13 -12 19 -4 8 13 44 15 36 2 -3 -5 -10 -5 -16 -2 -7 4 -8 2 -4 -5 4 -6
4 -11 -1 -10 -20 3 -30 -2 -30 -17 0 -14 2 -15 11 -2 6 8 19 14 29 12 9 -1 15
2 12 6 -3 5 7 8 22 8 49 -1 63 2 63 12 0 7 -6 7 -19 0 -14 -7 -22 -7 -27 1 -4
8 -9 7 -15 -2 -5 -8 -9 -9 -9 -4 0 6 4 16 9 23 7 11 9 10 14 -3 6 -13 10 -14
29 -3 13 7 28 13 33 13 6 1 9 7 7 14 -1 7 2 10 8 6 6 -3 8 -10 5 -15 -3 -5 -1
-11 5 -15 5 -3 10 -2 10 3 0 10 29 22 63 26 9 2 17 -3 17 -9 0 -6 -10 -11 -22
-10 -29 3 -48 -4 -48 -17 0 -7 4 -7 13 -1 6 6 23 9 35 8 24 -2 46 30 34 49 -3
5 0 6 7 2 6 -4 9 -11 7 -15 -3 -4 -1 -13 3 -20 6 -9 10 -5 15 13 3 14 11 26
16 26 14 0 12 -17 -2 -24 -7 -2 -3 -4 9 -2 12 1 26 5 29 9 12 12 26 8 18 -5
-6 -10 -5 -10 7 -1 16 13 35 12 59 -1 12 -7 12 -6 3 4 -6 7 -9 20 -6 29 4 14
3 14 -6 1 -13 -18 -15 -1 -2 19 7 11 10 9 16 -8 3 -11 14 -21 23 -21 15 0 15
2 2 10 -13 8 -12 10 3 10 9 0 17 -7 17 -15 0 -8 -8 -15 -17 -16 -14 0 -15 -2
-3 -6 8 -3 18 -11 22 -17 4 -6 11 -7 15 -2 4 5 2 11 -5 13 -10 4 -10 8 -1 19
13 16 35 18 43 5 4 -5 -3 -7 -14 -4 -12 3 -20 0 -20 -6 0 -7 5 -9 13 -4 6 4 4
-5 -5 -19 -13 -19 -15 -29 -6 -34 6 -4 8 -3 5 2 -3 5 2 10 12 10 10 0 18 -6
18 -13 0 -7 -4 -10 -8 -8 -11 7 -39 -6 -39 -17 0 -7 5 -6 14 1 11 9 15 8 20
-5 3 -9 4 -20 0 -25 -3 -5 0 -9 7 -9 7 0 9 8 6 21 -4 15 -2 18 7 10 7 -6 17
-7 22 -3 4 4 2 -1 -5 -11 -8 -9 -11 -20 -7 -24 3 -3 6 -1 6 5 0 7 5 12 11 12
5 0 8 -4 4 -9 -3 -5 0 -13 6 -17 8 -4 9 -3 5 4 -4 7 -2 12 3 12 6 0 11 -4 11
-10 0 -5 5 -10 11 -10 5 0 8 4 5 8 -3 5 1 9 9 9 12 0 12 -3 2 -16 -10 -12 -9
-14 5 -8 11 4 21 0 27 -11 6 -9 11 -13 11 -8 0 5 7 3 15 -4 8 -7 15 -18 15
-24 0 -6 -7 -2 -15 8 -11 14 -15 16 -15 5 -1 -8 -7 -3 -15 11 -8 14 -14 19
-15 12 0 -7 -5 -10 -12 -6 -7 4 -8 3 -4 -5 4 -6 11 -9 16 -6 4 3 11 -2 14 -11
3 -8 10 -13 15 -10 5 4 11 1 13 -5 3 -9 10 -9 27 1 13 6 21 7 17 2 -3 -6 -3
-12 1 -15 5 -2 3 -2 -4 -1 -7 2 -15 -1 -18 -7 -4 -5 -3 -9 2 -8 24 4 53 -2 53
-12 0 -5 -4 -8 -8 -5 -4 2 -8 -4 -8 -15 0 -13 5 -18 15 -14 9 3 12 3 8 -1 -4
-4 -1 -14 6 -23 11 -14 10 -14 -6 -2 -9 8 -21 11 -24 7 -4 -4 -2 -11 6 -15 10
-6 9 -10 -4 -15 -22 -8 -27 -8 -21 2 3 5 -1 9 -9 9 -19 0 -19 -2 1 -21 13 -14
13 -16 1 -16 -9 0 -18 6 -21 13 -4 6 -4 2 -2 -9 3 -17 0 -20 -17 -16 -12 3
-18 1 -14 -5 3 -5 0 -10 -7 -10 -8 0 -12 7 -9 15 5 12 2 12 -16 3 -12 -7 -27
-9 -33 -5 -7 5 -8 3 -4 -5 5 -7 15 -10 23 -7 8 3 11 1 8 -4 -3 -6 -1 -10 4
-10 6 0 11 -5 11 -12 0 -9 -3 -9 -12 0 -18 18 -34 15 -47 -10 -9 -18 -10 -19
-6 -3 4 11 7 23 8 27 1 3 -2 6 -8 6 -5 0 -9 -4 -7 -9 1 -5 -5 -12 -13 -15 -13
-5 -13 -9 -3 -23 12 -15 11 -15 -6 -1 -22 17 -25 17 -38 -2 -7 -10 -8 -9 -4 5
3 11 0 17 -9 17 -8 0 -28 13 -45 30 -36 35 -38 36 -36 13 1 -23 -34 -25 -52
-3 -10 13 -11 13 -6 -3 3 -9 1 -24 -6 -32 -9 -11 -9 -19 3 -36 9 -12 13 -27
10 -35 -3 -9 2 -12 17 -9 18 3 20 2 10 -10 -15 -18 1 -20 18 -3 9 9 12 9 12 0
0 -7 -5 -12 -11 -12 -8 0 -8 -4 0 -14 8 -10 9 -16 1 -21 -5 -3 -10 -11 -10
-18 0 -8 3 -8 12 1 7 7 17 12 22 12 6 0 5 -4 -3 -9 -12 -8 -12 -12 -2 -25 7
-9 18 -13 25 -9 6 3 7 2 3 -3 -5 -5 -13 -9 -18 -9 -5 0 -8 -4 -7 -10 1 -5 9
-9 18 -7 13 2 13 2 0 -7 -10 -7 -19 -6 -29 2 -12 10 -13 9 -3 -8 8 -16 7 -24
-5 -37 -10 -11 -12 -18 -5 -18 7 0 12 4 12 9 0 5 8 8 18 6 9 -2 19 -4 22 -4 3
-1 -2 -6 -10 -11 -9 -6 -10 -10 -3 -10 6 0 15 5 18 10 9 15 27 12 19 -2 -4 -7
2 -5 13 5 11 9 22 14 26 11 3 -3 4 2 3 13 -2 10 2 22 8 26 7 6 6 7 -4 4 -8 -2
-14 -10 -12 -16 1 -7 -2 -9 -9 -5 -8 5 -9 3 -4 -6 6 -9 4 -11 -5 -5 -9 6 -11
4 -5 -6 7 -12 6 -12 -6 -1 -12 11 -11 15 4 23 9 6 14 15 11 21 -4 6 -2 8 4 4
6 -3 14 -2 17 4 5 8 12 7 23 -2 14 -10 13 -8 -1 8 -16 19 -16 22 -2 27 8 4 15
11 15 17 0 6 -5 8 -12 4 -7 -4 -8 -3 -4 5 6 9 11 9 22 0 7 -6 11 -16 7 -22 -3
-6 -1 -7 5 -3 9 5 9 13 2 26 -7 13 -7 21 0 25 6 4 8 11 5 16 -10 15 2 10 16
-8 12 -14 12 -16 0 -8 -10 6 -12 4 -6 -5 6 -9 4 -11 -5 -5 -9 5 -11 4 -6 -4 4
-6 13 -8 19 -4 7 4 15 8 19 8 3 0 10 4 15 9 4 5 3 6 -4 2 -7 -4 -17 3 -24 16
-10 20 -10 21 2 12 19 -16 54 -11 77 9 10 9 22 14 26 10 4 -5 6 0 4 9 -1 9 0
16 3 15 3 -1 13 4 21 11 12 10 18 10 27 -2 12 -14 35 -16 47 -3 4 3 -3 5 -14
2 -12 -2 -23 3 -26 11 -4 11 -1 12 12 5 23 -12 34 -12 52 2 8 6 12 8 8 3 -4
-4 2 -18 13 -29 11 -12 17 -27 15 -34 -3 -7 2 -16 11 -21 14 -8 13 -10 -2 -15
-9 -4 -13 -12 -9 -18 4 -8 3 -9 -4 -5 -7 4 -12 1 -12 -9 0 -9 5 -13 11 -10 6
4 5 -2 -2 -13 -10 -16 -10 -23 0 -35 13 -16 -1 -33 -18 -22 -5 3 -13 0 -17 -6
-4 -8 -3 -9 4 -5 7 4 12 2 12 -4 0 -6 5 -8 12 -4 7 5 8 3 2 -7 -14 -24 -16
-51 -2 -43 10 6 10 5 1 -7 -8 -10 -9 -19 -3 -25 7 -7 3 -18 -10 -32 -12 -12
-16 -22 -11 -22 5 0 13 5 16 10 8 13 25 13 25 -1 0 -5 -4 -8 -9 -4 -6 3 -9 -4
-8 -15 1 -11 5 -20 10 -20 4 0 5 -5 1 -11 -4 -8 -9 -7 -15 2 -4 7 -5 17 -3 21
3 4 1 8 -5 8 -15 0 -9 -39 8 -45 17 -7 31 12 24 32 -3 7 0 13 7 13 6 0 8 -4 5
-10 -3 -5 1 -10 10 -10 10 0 13 5 9 12 -4 7 -3 8 5 4 8 -6 4 -16 -16 -34 -15
-15 -31 -27 -35 -27 -3 0 -9 -3 -13 -7 -9 -8 16 -5 31 5 8 4 11 -2 10 -18 -1
-19 -5 -24 -21 -20 -11 3 -14 2 -7 -1 6 -3 9 -11 6 -16 -4 -7 -2 -8 4 -4 8 5
10 1 5 -10 -5 -13 -3 -15 8 -9 8 5 11 4 6 0 -10 -12 -38 -15 -31 -4 3 5 0 9
-6 9 -6 0 -8 5 -5 10 3 6 1 10 -5 10 -6 0 -10 -8 -8 -18 1 -9 -2 -18 -7 -19
-6 -2 -10 1 -10 6 0 5 -4 13 -9 18 -5 5 -6 3 -2 -5 9 -16 -6 -16 -23 1 -10 8
-12 8 -7 0 3 -6 1 -15 -5 -18 -5 -4 -8 -14 -4 -22 4 -13 3 -14 -10 -3 -8 7
-12 16 -9 21 9 16 -3 10 -17 -8 -8 -9 -9 -14 -3 -10 6 3 11 -1 11 -9 0 -10 -7
-8 -24 8 -17 16 -22 18 -18 6 4 -9 1 -19 -6 -24 -8 -5 -10 -3 -4 6 6 10 4 12
-8 7 -9 -3 -19 -1 -23 5 -4 6 -3 8 4 4 6 -3 13 -2 16 3 8 13 -19 8 -36 -7 -8
-6 -18 -9 -21 -5 -4 3 -7 -2 -7 -12 0 -17 2 -17 18 -2 14 12 19 13 29 2 10
-10 9 -14 -3 -19 -9 -4 -12 -2 -8 5 4 7 1 10 -7 7 -8 -3 -14 -10 -14 -15 0 -6
-4 -15 -8 -20 -5 -4 -7 -1 -5 7 2 11 -4 14 -26 12 -18 -3 -26 0 -22 7 4 6 2
11 -3 11 -6 0 -11 -4 -11 -9 0 -12 -39 -21 -46 -10 -3 5 -11 9 -17 9 -7 0 -4
-5 6 -11 25 -15 21 -32 -5 -18 -18 10 -20 9 -15 -5 4 -10 3 -15 -2 -11 -5 3
-12 -1 -15 -7 -3 -7 -4 1 -1 17 2 17 2 24 -1 17 -3 -6 -11 -9 -16 -6 -6 4 -8
2 -5 -3 4 -6 0 -16 -8 -23 -13 -11 -14 -10 -10 3 8 18 -11 32 -21 16 -4 -8 -3
-9 4 -5 18 11 14 0 -5 -15 -10 -8 -14 -9 -10 -2 4 6 3 14 -3 18 -5 3 -10 -1
-10 -9 0 -8 -5 -18 -12 -22 -7 -5 -8 -3 -3 6 6 10 4 12 -8 7 -10 -4 -20 0 -26
11 -9 15 -10 15 -11 1 0 -9 -8 -23 -17 -30 -11 -10 -14 -10 -9 -1 4 6 3 12 -3
12 -5 0 -15 -8 -20 -17 -6 -11 -11 -13 -11 -5 0 7 -6 12 -12 11 -36 -4 -79 2
-73 11 4 6 1 9 -7 8 -7 -2 -12 3 -10 10 1 8 -2 11 -7 7 -6 -3 -2 -21 11 -43
l21 -37 -24 27 c-17 20 -28 25 -38 19 -9 -6 -23 -4 -40 6 -25 14 -25 14 -6 -2
38 -31 55 -37 55 -19 0 10 3 15 6 11 4 -3 4 -13 0 -22 -4 -13 -10 -14 -26 -5
-14 8 -26 8 -41 -1 -17 -9 -20 -8 -14 2 6 9 3 10 -11 5 -34 -14 -64 -17 -64
-7 0 5 5 13 12 17 7 4 8 3 4 -4 -4 -7 1 -9 16 -5 13 3 33 5 46 5 13 0 22 1 20
2 -50 32 -57 35 -64 24 -4 -6 -3 -8 4 -4 6 3 13 2 16 -3 3 -5 -1 -11 -9 -15
-8 -3 -17 -1 -20 5 -4 5 -11 7 -16 4 -5 -4 -9 0 -9 7 0 10 -2 10 -9 -1 -6 -9
-11 -10 -15 -2 -4 6 -12 11 -19 11 -6 0 -2 -6 8 -14 11 -8 23 -12 27 -10 4 3
5 -3 1 -12 -4 -11 -8 -13 -11 -6 -2 7 -9 12 -15 12 -6 0 -18 7 -28 16 -17 15
-18 15 -14 -12 l5 -29 -16 25 -15 25 5 -27 c4 -15 2 -30 -4 -33 -6 -3 -7 1 -4
9 4 9 0 18 -9 22 -9 3 -14 14 -12 26 3 15 1 17 -9 9 -7 -6 -15 -8 -19 -5 -3 3
-4 -2 -3 -13 2 -10 9 -18 16 -18 7 0 14 -6 16 -13 1 -7 0 -8 -2 -3 -3 6 -12 7
-20 4 -8 -3 -14 0 -14 7 0 6 -5 8 -10 5 -6 -3 -14 4 -19 17 -9 22 -10 22 -10
2 -1 -12 -8 -25 -17 -28 -23 -9 -31 -7 -15 3 8 5 16 20 18 33 2 19 1 20 -7 6
-12 -19 -38 -18 -51 3 -6 10 -9 10 -9 2 0 -19 4 -28 12 -26 3 1 8 -3 11 -11 3
-8 -2 -12 -16 -11 -12 2 -21 8 -19 15 2 8 -3 10 -13 7 -20 -8 -19 2 3 20 15
13 15 13 -5 4 -14 -7 -24 -8 -28 -1 -6 10 1 14 18 11 5 -1 5 3 2 9 -5 8 -12 6
-24 -4 -15 -14 -19 -14 -35 2 -14 12 -20 14 -23 5 -6 -18 -38 -16 -57 3 -9 8
-16 12 -16 7 0 -11 20 -40 20 -29 0 5 7 3 15 -4 13 -10 19 -10 34 4 12 11 20
13 23 6 2 -6 12 -12 23 -14 10 -1 20 -8 21 -15 2 -7 0 -7 -3 -1 -3 7 -10 7
-21 -2 -13 -11 -14 -11 -7 1 6 11 4 13 -9 8 -10 -4 -15 -3 -11 3 9 14 -8 13
-23 -2 -8 -8 -15 -8 -28 3 -9 8 -19 13 -20 12 -10 -7 -33 11 -27 21 3 6 1 6
-8 -1 -16 -16 -29 -17 -29 -2 0 5 4 7 10 4 6 -4 7 1 3 11 -5 14 -7 14 -17 -4
-8 -15 -15 -19 -26 -12 -9 6 -17 5 -23 -3 -5 -7 -5 -2 -2 12 5 16 4 21 -4 17
-22 -14 -80 -14 -85 0 -3 7 0 16 6 20 7 5 8 2 3 -6 -6 -10 -4 -12 7 -7 9 3 19
2 24 -3 5 -5 18 -2 28 6 11 8 15 14 9 14 -7 0 -15 -5 -18 -10 -4 -6 -11 -8
-16 -4 -5 3 -7 9 -4 13 2 5 -7 7 -20 5 -15 -1 -29 4 -35 14 -5 10 -10 13 -10
9 0 -4 -10 -3 -23 3 -21 11 -21 10 -3 -4 11 -9 23 -16 28 -16 4 0 8 -5 8 -12
0 -9 -3 -9 -12 0 -7 7 -17 12 -22 12 -6 0 -5 -5 2 -12 7 -7 12 -17 12 -22 0
-6 -11 6 -24 27 -14 23 -27 34 -30 28 -4 -6 -2 -11 3 -11 15 0 14 -27 -1 -33
-10 -4 -10 -6 0 -6 7 -1 10 -6 6 -13 -4 -7 -3 -8 5 -4 6 4 8 12 5 18 -4 7 -2
8 5 4 6 -4 9 -16 6 -25 -3 -10 1 -24 10 -31 10 -8 13 -21 9 -34 -6 -21 -6 -21
10 -1 14 19 15 18 12 -17 -1 -20 1 -35 5 -32 4 2 12 -4 18 -13 6 -10 11 -12
11 -5 0 6 4 12 9 12 6 0 8 -9 6 -20 -2 -11 0 -18 6 -15 5 4 9 -2 10 -12 0 -11
3 -13 6 -5 3 7 0 18 -5 25 -8 9 -8 17 0 27 9 13 9 13 5 0 -2 -8 2 -21 9 -28 8
-7 14 -10 14 -6 0 3 6 1 13 -5 8 -6 16 -9 19 -6 3 3 10 -1 16 -8 9 -10 8 -14
-3 -14 -8 0 -11 5 -8 11 3 6 3 8 -2 4 -4 -4 -14 -3 -21 3 -8 7 -14 7 -19 -1
-4 -6 -1 -9 7 -8 7 2 12 -2 11 -8 -2 -13 36 -12 56 0 10 6 12 5 7 -3 -5 -8 -3
-12 5 -10 33 4 42 -1 30 -15 -9 -11 -9 -16 0 -22 8 -4 9 -3 5 4 -4 7 -3 12 3
12 5 0 12 -6 15 -12 3 -7 4 -2 1 12 -3 14 -2 19 1 12 5 -10 10 -9 21 5 8 10
12 13 9 6 -7 -14 3 -45 13 -39 4 3 13 0 21 -5 13 -7 13 -10 1 -18 -8 -5 -9
-11 -3 -15 6 -3 13 3 17 14 9 28 28 25 20 -2 -3 -13 -3 -18 2 -13 12 15 39 12
35 -5 -3 -11 0 -11 12 0 9 7 16 9 16 5 0 -4 7 -2 15 5 8 7 12 17 8 24 -3 6 0
6 8 -1 7 -7 17 -13 22 -13 4 0 5 6 1 13 -4 6 1 5 12 -4 10 -9 25 -14 32 -12 6
3 12 -2 12 -11 0 -8 4 -17 9 -20 4 -3 7 6 5 19 -3 31 0 31 27 3 12 -13 19 -18
15 -11 -4 7 0 12 11 11 10 0 27 3 38 7 17 7 16 5 -3 -11 l-24 -20 23 -1 c19
-2 21 0 9 8 -11 7 -4 9 25 7 22 -1 45 -9 51 -17 9 -11 11 -11 11 3 0 15 -10
20 -29 17 -5 0 -8 3 -8 8 0 6 9 9 20 8 11 -1 20 -6 20 -11 0 -6 5 -5 12 2 7 7
17 12 23 12 5 0 2 -5 -7 -11 -22 -12 -23 -26 -3 -26 8 0 12 4 8 10 -3 5 10 7
30 6 20 -2 40 1 44 5 5 5 2 6 -7 1 -12 -7 -13 -6 -2 6 11 12 14 12 22 -1 5 -8
6 -18 3 -24 -3 -5 -1 -6 6 -2 7 5 9 16 5 29 -6 21 -5 20 15 -3 13 -14 20 -20
17 -13 -4 6 -2 14 4 18 5 3 10 1 10 -6 0 -8 5 -7 17 2 15 12 16 12 10 -3 -7
-21 18 -13 47 14 11 10 22 15 25 12 3 -3 -2 -10 -12 -15 -9 -6 -17 -15 -17
-22 0 -8 3 -9 8 -1 9 13 40 26 69 29 15 1 20 -3 16 -14 -3 -10 -2 -12 4 -5 4
5 18 10 31 11 42 2 43 3 37 26 -3 12 -3 17 2 12 12 -16 30 -12 48 10 9 11 14
16 12 10 -2 -5 5 -19 16 -30 11 -11 16 -14 12 -6 -6 11 -4 13 9 8 12 -5 20 0
27 16 9 20 9 20 5 -6 -2 -16 0 -25 5 -20 5 5 10 20 11 34 2 28 30 36 47 15 8
-9 7 -13 -4 -13 -8 0 -12 4 -9 9 3 4 1 8 -5 8 -14 0 -25 -20 -12 -21 33 -4 46
-2 44 7 -1 5 11 17 27 26 27 15 28 15 25 -1 -2 -10 3 -18 11 -18 9 0 13 6 9
16 -3 8 -3 12 1 8 4 -4 19 3 33 15 l26 23 -20 -24 c-14 -17 -16 -22 -5 -19 8
3 22 2 31 -3 11 -5 16 -3 16 7 0 9 -6 13 -14 10 -8 -3 -11 -1 -8 4 9 14 21 12
39 -6 9 -8 16 -11 16 -5 0 5 -7 17 -16 25 -14 15 -13 16 8 14 14 -2 22 2 20 9
-3 18 15 16 22 -3 3 -8 2 -12 -3 -9 -15 9 -25 -15 -12 -28 9 -9 11 -8 6 3 -4
11 1 16 15 17 13 1 18 -2 14 -10 -4 -7 -3 -8 2 -4 5 5 9 13 9 18 0 5 2 8 5 7
3 -1 14 4 26 10 16 8 24 8 34 -1 12 -10 12 -9 1 6 -12 15 -11 17 8 17 15 0 20
4 15 13 -5 8 -2 7 9 -2 15 -12 20 -11 41 8 12 11 26 18 30 14 4 -4 4 1 0 11
-7 19 -8 19 -24 0 -18 -21 -40 -29 -40 -14 0 5 6 10 14 10 7 0 19 6 25 14 14
16 54 9 44 -8 -4 -6 1 -5 10 3 18 15 23 26 7 16 -5 -3 -10 -2 -10 3 0 5 9 12
21 15 14 4 18 10 13 19 -4 8 0 7 12 -3 31 -26 45 -32 42 -17 -2 7 5 12 14 12
14 -1 15 2 8 16 -15 28 -12 36 6 14 11 -13 14 -14 11 -3 -3 8 4 21 14 27 16
10 21 10 25 -3 6 -14 8 -13 20 2 7 10 14 22 14 27 0 6 -7 1 -15 -10 -8 -10
-15 -14 -15 -8 0 6 6 17 14 23 11 10 17 8 25 -6 11 -17 11 -17 10 2 -2 33 0
36 19 26 14 -7 19 -6 19 4 0 8 -4 12 -8 9 -4 -2 -11 1 -15 7 -4 7 -3 9 4 5 5
-3 13 0 15 6 4 10 6 10 6 1 1 -7 6 -13 11 -13 7 0 7 8 -1 23 -9 18 -9 20 2 9
18 -16 29 -15 29 4 0 9 -5 12 -12 8 -7 -4 -8 -3 -4 4 7 12 36 5 49 -12 6 -7 7
-5 4 5 -3 9 3 26 14 38 11 12 19 29 17 38 -2 12 4 18 16 18 10 0 20 8 22 18 1
9 -2 15 -7 11 -5 -3 -6 -10 -3 -16 4 -7 2 -8 -5 -4 -8 6 -9 12 -2 20 6 7 8 16
4 20 -4 4 0 4 10 0 12 -4 17 -1 17 10 0 10 -6 13 -17 10 -15 -5 -16 -4 -3 5 8
6 11 11 6 11 -5 0 -3 6 3 13 6 8 7 18 3 23 -4 5 2 2 13 -7 11 -9 26 -14 34
-11 9 3 11 0 6 -8 -6 -9 -4 -11 4 -6 9 6 8 13 -6 26 -10 10 -22 17 -27 16 -5
0 -11 6 -13 14 -3 9 -1 11 4 5 4 -6 14 -10 21 -9 6 1 16 2 21 3 12 1 9 97 -3
108 -5 5 -6 2 -1 -6 5 -9 3 -12 -6 -9 -8 3 -13 11 -12 17 2 6 -2 11 -7 11 -6
0 -10 -4 -10 -8 0 -5 -7 -9 -15 -9 -20 0 -19 14 3 26 9 6 12 11 6 11 -6 0 -17
-7 -24 -15 -10 -12 -10 -18 0 -30 7 -8 10 -16 6 -16 -3 -1 -10 -2 -15 -3 -5 0
-13 -5 -18 -10 -5 -5 -3 -6 5 -2 7 4 12 2 12 -6 1 -8 6 -6 15 6 8 10 11 24 8
30 -4 6 0 6 9 -1 8 -7 19 -9 23 -5 5 4 5 1 1 -6 -4 -7 -12 -10 -17 -7 -9 6
-14 -9 -9 -30 1 -5 -2 -7 -6 -3 -4 4 -20 0 -35 -9 -23 -14 -26 -20 -16 -32 10
-12 9 -13 -3 -6 -25 16 -40 14 -50 -5 -5 -9 -7 -20 -5 -24 3 -3 2 -4 -2 -1 -3
3 -12 0 -19 -6 -8 -7 -14 -6 -20 2 -5 8 -3 9 6 4 9 -6 11 -4 5 5 -5 8 -4 11 2
7 6 -4 18 5 27 18 10 14 22 23 28 19 7 -4 8 -3 4 5 -6 8 -12 9 -20 2 -7 -6
-16 -7 -20 -3 -4 4 -7 2 -6 -3 5 -21 0 -36 -9 -30 -11 6 -24 -12 -28 -38 -2
-12 1 -16 9 -11 6 4 8 3 5 -3 -4 -6 -20 -9 -37 -8 -26 2 -29 1 -18 -13 11 -13
10 -14 -10 -3 -12 7 -20 16 -18 20 3 4 -2 8 -10 8 -11 0 -9 -6 7 -23 l21 -22
-31 2 c-16 1 -28 -1 -25 -5 2 -4 -3 -15 -12 -24 -12 -11 -20 -13 -29 -5 -10 8
-15 8 -21 -1 -4 -8 -3 -9 4 -5 7 4 12 2 12 -3 0 -6 -7 -11 -15 -11 -8 0 -15 5
-15 11 0 6 -9 1 -20 -12 -11 -14 -19 -18 -20 -11 0 7 -5 10 -11 6 -8 -4 -3
-12 12 -20 18 -10 19 -13 7 -14 -9 0 -18 -3 -21 -7 -2 -5 -2 -3 -1 4 2 6 -4
14 -12 17 -10 4 -12 2 -8 -6 5 -7 2 -9 -9 -5 -11 4 -14 2 -10 -8 3 -8 9 -12
15 -9 5 3 4 -3 -3 -15 -10 -14 -15 -17 -21 -8 -5 9 -12 6 -23 -8 -16 -20 -16
-19 -5 3 6 12 15 22 21 22 6 0 7 5 3 11 -5 8 -9 8 -14 -1 -4 -7 -13 -10 -19
-6 -6 4 -9 2 -5 -7 6 -17 -24 -45 -34 -31 -4 5 -19 15 -34 23 -16 8 -28 18
-28 23 0 5 4 7 9 4 5 -3 12 1 15 9 5 13 10 14 28 5 19 -9 21 -9 8 2 -23 20
-47 53 -32 44 7 -4 12 -2 12 4 0 6 5 8 12 4 8 -5 9 -2 4 12 -4 10 -4 15 0 11
4 -4 13 1 20 11 12 15 13 15 9 -7 -2 -13 -1 -20 3 -17 4 4 7 13 7 19 0 7 8 11
18 11 9 -1 14 3 11 8 -3 5 -12 7 -20 4 -8 -3 -14 -1 -14 4 0 6 5 10 11 10 8 0
7 6 -2 17 -9 11 -10 14 -2 9 9 -5 12 1 9 24 -3 26 2 35 33 55 19 14 31 25 26
25 -6 0 -10 20 -10 44 l0 45 25 -16 c21 -14 23 -14 13 -1 -7 8 -9 19 -5 23 4
5 1 5 -7 0 -9 -5 -12 -4 -7 3 3 5 1 12 -6 14 -7 3 -5 7 6 11 9 4 15 3 12 -2
-3 -5 1 -11 9 -15 8 -3 17 0 21 6 4 6 3 8 -3 5 -6 -4 -13 5 -15 22 -5 33 0 51
14 51 6 0 6 -6 -2 -15 -9 -10 -9 -15 -1 -15 6 0 11 5 11 11 0 5 6 7 13 3 6 -4
3 3 -8 16 -16 19 -17 22 -3 17 9 -3 19 0 22 8 3 9 0 12 -8 9 -8 -3 -17 0 -22
7 -4 7 -3 10 4 5 14 -8 32 22 32 54 0 6 6 5 14 -2 8 -7 12 -16 10 -20 -2 -3 6
-4 18 0 17 4 19 7 6 11 -8 3 -14 14 -12 24 4 26 10 31 18 12 4 -11 2 -14 -7
-9 -6 4 -9 3 -5 -1 5 -5 20 -10 34 -11 24 -3 25 -2 9 10 -18 13 -12 42 6 30 5
-3 7 -10 4 -15 -4 -5 -1 -9 6 -9 6 0 9 8 6 20 -4 17 -2 18 13 10 16 -9 18 -7
15 10 -2 11 0 18 5 15 5 -3 11 -1 15 5 4 6 11 7 17 4 7 -5 9 -1 5 9 -4 11 -2
14 8 11 8 -3 11 -12 8 -20 -3 -8 0 -14 6 -14 6 0 10 6 8 13 -1 6 3 11 10 10 7
-2 10 8 8 27 -3 24 -1 28 13 24 14 -5 14 -4 2 4 -8 6 -18 8 -22 6 -4 -3 -5 2
-2 10 3 9 10 14 14 11 5 -3 12 0 16 7 4 7 4 10 -1 6 -12 -11 -47 11 -38 25 5
9 3 9 -9 0 -8 -7 -18 -10 -22 -6 -10 10 -37 13 -31 3 3 -4 -2 -13 -10 -20 -8
-7 -15 -9 -15 -5 0 4 -6 2 -13 -4 -10 -8 -14 -7 -14 3 0 8 8 13 19 11 10 -2
18 1 18 7 0 5 -6 8 -14 5 -7 -3 -19 0 -26 6 -10 9 -11 9 -5 -2 6 -10 4 -13 -7
-9 -8 4 -15 0 -15 -8 0 -7 4 -11 9 -8 15 9 8 -3 -9 -17 -14 -12 -16 -12 -9 0
6 9 5 12 -5 9 -8 -3 -13 -14 -11 -24 2 -15 1 -16 -7 -5 -5 8 -7 21 -4 30 4 12
3 13 -5 3 -11 -16 -21 -15 -42 1 -13 10 -13 10 -1 -5 7 -10 17 -16 20 -13 4 2
8 -2 8 -10 0 -18 -9 -19 -25 -3 -17 17 -46 20 -33 4 6 -7 7 -17 3 -22 -4 -4 1
-2 11 5 9 7 17 9 17 3 0 -17 -30 -23 -36 -7 -4 8 -11 15 -16 15 -6 0 -17 8
-25 18 -13 15 -13 15 -3 -5 8 -17 8 -23 -1 -23 -8 0 -7 -5 2 -17 13 -16 12
-17 -3 -4 -10 7 -15 17 -12 22 3 5 -2 9 -11 9 -9 0 -13 -4 -10 -10 3 -5 1 -10
-5 -10 -7 0 -9 8 -5 19 3 11 1 22 -5 26 -6 3 -7 12 -3 18 4 7 0 6 -10 -2 -18
-15 -23 -26 -7 -16 5 3 7 0 4 -9 -5 -12 -9 -13 -19 -3 -9 8 -10 16 -3 25 6 7
8 15 4 19 -3 3 -6 2 -6 -4 0 -6 -9 -13 -20 -16 -11 -3 -20 -2 -20 3 0 4 -8 7
-17 7 -34 0 -43 3 -43 14 0 8 4 8 13 0 10 -8 14 -7 14 3 0 9 -11 13 -33 10
-27 -2 -32 0 -28 14 3 9 -2 6 -10 -8 -8 -14 -15 -19 -16 -12 0 7 -4 11 -9 8
-5 -3 -12 1 -15 9 -4 13 -2 14 14 5 14 -7 20 -7 20 0 0 10 -19 14 -52 12 -10
-1 -18 3 -18 9 0 5 -5 7 -12 3 -7 -4 -8 -3 -4 5 6 9 12 9 24 -1 15 -12 16 -11
3 5 -7 9 -19 17 -25 16 -30 -4 -47 2 -40 13 4 7 3 8 -4 4 -6 -4 -9 -14 -6 -24
5 -14 4 -14 -4 -3 -9 13 -13 13 -29 1 -15 -12 -15 -11 2 9 11 14 14 21 8 17
-7 -4 -13 -2 -13 4 0 6 -5 8 -10 5 -6 -4 -8 -10 -6 -14 3 -4 -1 -8 -9 -8 -8 0
-13 5 -12 11 1 6 -6 10 -15 8 -10 -1 -22 7 -28 20 -10 21 -10 21 3 6 18 -23
23 -23 23 1 0 11 -4 18 -7 15 -4 -2 -10 0 -13 5 -4 5 -2 12 4 16 6 4 8 10 5
15 -3 5 -1 11 5 15 6 4 7 11 4 17 -4 6 -2 8 4 4 6 -3 15 2 21 11 6 10 11 13
11 7 0 -5 -6 -16 -12 -23 -11 -11 -10 -13 5 -7 10 3 21 6 23 6 3 0 3 4 -1 9
-5 9 10 24 28 27 4 1 8 2 10 4 7 5 36 7 34 2 -1 -4 2 -7 8 -7 5 0 10 7 10 15
0 8 9 16 20 16 11 1 25 3 30 4 6 1 13 2 17 1 4 0 5 6 2 13 -3 8 -12 12 -20 9
-8 -3 -11 -10 -7 -16 4 -6 1 -7 -6 -2 -14 8 -4 22 19 27 8 2 21 11 28 20 12
17 47 14 36 -3 -3 -5 -1 -9 4 -9 6 0 13 7 16 16 3 8 10 12 16 9 6 -3 7 1 4 9
-3 9 -11 16 -18 17 -6 0 -1 4 12 10 13 5 20 13 17 19 -4 6 -1 9 7 8 7 -2 12 3
10 11 -2 11 4 9 25 -4 20 -13 24 -14 16 -3 -7 8 -9 19 -5 23 4 5 1 5 -6 1 -10
-6 -10 -1 2 22 8 16 12 33 8 37 -4 5 -1 5 6 1 7 -4 15 -1 18 8 3 9 11 16 17
16 6 0 1 -10 -10 -22 -30 -34 -35 -46 -22 -54 8 -4 9 -3 5 4 -4 7 -2 12 3 12
6 0 10 6 9 13 -2 6 3 11 10 9 6 -1 11 4 10 10 -2 7 2 12 9 11 13 -3 12 22 -2
34 -4 4 -5 2 0 -6 5 -9 4 -12 -3 -7 -6 4 -9 13 -5 22 4 11 8 12 19 3 8 -7 17
-9 21 -5 3 3 1 6 -5 6 -7 0 -12 11 -12 24 0 13 -3 26 -7 29 -5 2 -2 2 5 1 6
-2 12 1 12 7 0 6 4 8 8 5 5 -3 9 1 9 9 0 8 -4 12 -8 9 -4 -2 -10 0 -13 5 -4 5
-2 12 4 16 5 3 10 12 10 18 0 7 -4 6 -10 -3 -6 -10 -10 -11 -10 -2 0 6 -9 12
-20 12 -22 0 -25 8 -9 30 9 12 10 11 4 -5 -5 -15 -3 -17 6 -8 16 16 3 33 -21
28 -12 -2 -18 0 -15 6 4 5 -3 9 -13 9 -11 0 -23 8 -27 18 -5 14 -4 15 6 5 16
-16 29 -17 29 -3 0 5 -6 9 -12 7 -8 -1 -12 6 -10 17 3 18 3 18 -14 1 -12 -11
-19 -14 -22 -6 -2 6 -8 9 -12 6 -5 -3 -11 -1 -14 4 -4 5 -1 13 5 17 7 4 9 3 6
-4 -5 -6 1 -8 15 -4 21 5 21 6 2 12 -10 4 -26 4 -35 -1 -10 -5 -23 -3 -35 7
-18 15 -18 15 1 6 15 -7 24 -6 34 5 12 13 11 14 -7 8 -18 -5 -21 -3 -16 12 4
12 3 14 -3 6 -12 -16 -55 -13 -49 4 3 7 0 15 -6 19 -6 4 -8 3 -4 -4 3 -6 2
-13 -4 -17 -6 -4 -7 -11 -4 -17 5 -7 2 -8 -5 -4 -7 5 -10 14 -7 22 3 7 0 16
-6 20 -7 4 -8 3 -4 -4 4 -7 2 -12 -3 -12 -6 0 -11 6 -11 14 0 20 -12 25 -35
15z m40 -39 c3 -5 1 -10 -5 -10 -6 0 -8 -4 -5 -10 3 -5 1 -10 -4 -10 -6 0 -11
5 -11 11 0 5 -6 7 -12 3 -9 -5 -9 -2 1 9 15 19 27 22 36 7z m-25 -180 c0 -5
-2 -10 -4 -10 -3 0 -8 5 -11 10 -3 6 -1 10 4 10 6 0 11 -4 11 -10z m288 -13
c-1 -2 3 -11 11 -20 9 -11 10 -17 2 -17 -6 0 -11 3 -12 8 0 4 -2 15 -4 25 -2
11 -1 17 2 14 2 -3 3 -7 1 -10z m-304 -29 c-3 -5 -10 -5 -16 -2 -7 5 -9 1 -5
-9 4 -10 2 -16 -6 -14 -7 1 -11 -4 -9 -11 1 -8 -2 -11 -8 -7 -10 6 -7 17 11
41 10 13 41 15 33 2z m-1409 -98 c3 -5 -1 -10 -10 -10 -9 0 -13 5 -10 10 3 6
8 10 10 10 2 0 7 -4 10 -10z m-55 -41 c0 -14 -17 -10 -23 5 -4 10 -1 13 9 9 7
-3 14 -9 14 -14z m1261 -22 c-13 -13 -26 -3 -16 12 3 6 11 8 17 5 6 -4 6 -10
-1 -17z m-1297 -15 c3 -5 -1 -9 -9 -9 -8 0 -12 4 -9 9 3 4 7 8 9 8 2 0 6 -4 9
-8z m181 -71 c3 -5 2 -12 -3 -15 -5 -3 -9 1 -9 9 0 17 3 19 12 6z m930 0 c3
-5 2 -12 -3 -15 -5 -3 -9 1 -9 9 0 17 3 19 12 6z m-55 -34 c0 -7 -4 -6 -10 3
-5 8 -10 10 -10 4 0 -6 -7 -11 -16 -11 -15 0 -14 2 1 13 19 14 35 10 35 -9z
m600 3 c0 -5 -2 -10 -4 -10 -3 0 -8 5 -11 10 -3 6 -1 10 4 10 6 0 11 -4 11
-10z m-1415 -20 c3 -6 -1 -7 -9 -4 -18 7 -21 14 -7 14 6 0 13 -4 16 -10z m542
-27 c0 -10 -3 -10 -16 0 -12 10 -14 9 -9 -4 4 -10 1 -16 -8 -16 -17 0 -18 9
-4 23 15 15 37 13 37 -3z m-261 -22 c0 -15 -3 -17 -13 -9 -9 8 -13 7 -13 -2 0
-8 -3 -10 -7 -6 -6 6 22 36 32 36 0 0 1 -9 1 -19z m54 -1 c-12 -22 -21 -26
-17 -7 2 10 17 26 25 27 1 0 -2 -9 -8 -20z m80 -4 c0 -3 -4 -8 -10 -11 -5 -3
-10 -1 -10 4 0 6 5 11 10 11 6 0 10 -2 10 -4z m-723 -53 c-4 -3 -1 -13 6 -22
11 -14 10 -14 -5 -2 -16 12 -16 31 -1 31 4 0 3 -3 0 -7z m38 -62 c-6 -10 29
-34 37 -26 3 3 5 -1 5 -9 0 -14 -11 -9 -56 20 -4 3 9 24 15 24 3 0 3 -4 -1 -9z
m1364 -23 c-12 -23 -21 -24 -12 -1 5 12 3 14 -7 8 -8 -5 -11 -4 -7 2 3 5 13
10 21 10 11 0 13 -5 5 -19z m-34 -16 c-3 -3 -11 0 -18 7 -9 10 -8 11 6 5 10
-3 15 -9 12 -12z m-102 -15 c3 -7 -3 -13 -13 -13 -10 0 -16 6 -13 13 3 7 9 13
13 13 4 0 10 -6 13 -13z m-55 -11 c-7 -8 -15 -12 -17 -11 -5 6 10 25 20 25 5
0 4 -6 -3 -14z m-431 -83 c2 -6 -4 -13 -13 -17 -15 -6 -15 -4 -3 11 12 15 12
16 -4 10 -11 -4 -16 -3 -12 4 8 12 27 7 32 -8z m933 -8 c0 -2 -10 -9 -22 -15
-22 -11 -22 -10 -4 4 21 17 26 19 26 11z m470 -15 c0 -5 -5 -10 -11 -10 -5 0
-7 5 -4 10 3 6 8 10 11 10 2 0 4 -4 4 -10z m37 -26 c-9 -9 -28 6 -21 18 4 6
10 6 17 -1 6 -6 8 -13 4 -17z m6 -65 c-8 -8 -13 -7 -18 2 -5 8 -4 10 3 5 15
-9 16 6 2 22 -5 7 -2 5 7 -3 12 -11 14 -18 6 -26z m-283 16 c0 -8 -2 -15 -4
-15 -2 0 -6 7 -10 15 -3 8 -1 15 4 15 6 0 10 -7 10 -15z m-649 -218 c-10 -9
-11 -8 -5 6 3 10 9 15 12 12 3 -3 0 -11 -7 -18z m34 -25 c-3 -3 -11 0 -18 7
-9 10 -8 11 6 5 10 -3 15 -9 12 -12z m222 -70 c-10 -10 -27 -18 -40 -17 -25 2
-21 18 5 20 10 1 21 5 25 8 15 16 25 5 10 -11z m359 -99 c-3 -20 -22 -28 -31
-14 -3 7 0 8 9 5 11 -4 14 0 11 15 -2 12 0 19 5 16 4 -3 7 -13 6 -22z m491 -4
c2 -16 -1 -19 -9 -11 -5 5 -7 15 -4 21 10 15 12 14 13 -10z m-1017 -9 c0 -5
-5 -10 -11 -10 -5 0 -7 5 -4 10 3 6 8 10 11 10 2 0 4 -4 4 -10z m1010 -25 c9
-10 9 -15 1 -15 -6 0 -11 5 -11 11 0 6 -7 8 -16 5 -8 -3 -12 -2 -9 4 9 14 21
12 35 -5z m-55 -5 c-3 -5 -12 -10 -18 -10 -7 0 -6 4 3 10 19 12 23 12 15 0z
m-1011 -36 c5 -13 4 -14 -7 -6 -8 7 -18 8 -22 4 -5 -4 -5 -1 -1 6 10 17 23 15
30 -4z m679 -158 c4 -10 1 -13 -8 -9 -8 3 -12 9 -9 14 7 12 11 11 17 -5z m262
-36 c-3 -5 -12 -10 -18 -10 -7 0 -6 4 3 10 19 12 23 12 15 0z m-486 -62 c-13
-24 -15 -23 -13 10 2 37 3 39 13 23 6 -9 6 -22 0 -33z m-115 -46 c3 -5 -1 -9
-9 -9 -8 0 -12 4 -9 9 3 4 7 8 9 8 2 0 6 -4 9 -8z m-228 -74 c4 -7 3 -8 -4 -4
-7 4 -12 3 -12 -2 0 -5 -7 -9 -16 -9 -14 0 -14 2 2 14 22 16 21 16 30 1z m579
-7 c-3 -6 -11 -11 -16 -11 -5 0 -4 6 3 14 14 16 24 13 13 -3z m-1855 -11 c0
-5 -6 -10 -12 -10 -9 0 -8 -4 2 -10 8 -5 10 -10 4 -10 -6 0 -18 8 -25 17 -10
11 -10 14 -1 9 6 -4 12 -2 12 3 0 6 5 11 10 11 6 0 10 -4 10 -10z m1757 -5 c0
-8 -4 -12 -9 -9 -5 3 -6 10 -3 15 9 13 12 11 12 -6z m-1129 -60 c-3 -3 -9 2
-12 12 -6 14 -5 15 5 6 7 -7 10 -15 7 -18z m-592 -32 c-7 -7 -21 -4 -21 5 0 4
-4 14 -9 22 -6 9 -1 7 12 -4 12 -11 20 -21 18 -23z m1579 7 c-10 -11 -20 -18
-23 -15 -3 3 -11 0 -17 -5 -9 -7 -14 -6 -18 3 -4 10 2 13 18 11 13 -1 29 4 36
12 6 8 14 14 17 14 3 0 -3 -9 -13 -20z m-398 -97 c-4 -3 -2 -12 5 -20 8 -11 7
-12 -6 -7 -9 3 -16 9 -16 13 0 9 11 21 18 21 3 0 2 -3 -1 -7z m-864 -48 c-3
-9 -8 -14 -10 -11 -3 3 -2 9 2 15 9 16 15 13 8 -4z m727 0 c0 -12 -19 -12 -23
0 -4 9 -1 12 9 8 7 -3 14 -7 14 -8z m-700 -15 c0 -5 -2 -10 -4 -10 -3 0 -8 5
-11 10 -3 6 -1 10 4 10 6 0 11 -4 11 -10z"/>
<path d="M1641 2364 c0 -11 3 -14 6 -6 3 7 2 16 -1 19 -3 4 -6 -2 -5 -13z"/>
<path d="M1670 2370 c0 -5 7 -7 15 -4 8 4 15 8 15 10 0 2 -7 4 -15 4 -8 0 -15
-4 -15 -10z"/>
<path d="M1720 2360 c8 -5 20 -10 25 -10 6 0 3 5 -5 10 -8 5 -19 10 -25 10 -5
0 -3 -5 5 -10z"/>
<path d="M1160 2340 c-7 -13 -7 -21 0 -25 6 -4 9 -1 8 6 -2 6 3 14 10 16 8 3
10 -1 5 -14 -7 -17 -6 -17 11 0 9 9 20 17 23 17 3 0 2 -8 -1 -17 -6 -17 -5
-17 8 0 14 18 32 24 21 8 -3 -5 -1 -13 5 -16 6 -4 9 -1 8 7 -2 8 5 12 17 11
11 -1 14 0 7 3 -6 3 -9 11 -5 17 5 8 2 8 -9 0 -8 -7 -18 -10 -21 -6 -4 3 -23
7 -42 8 -26 2 -38 -2 -45 -15z"/>
<path d="M1709 2342 c7 -5 10 -15 7 -21 -4 -6 -2 -11 4 -11 17 0 8 33 -10 37
-12 4 -13 3 -1 -5z"/>
<path d="M690 2320 c0 -5 5 -10 10 -10 6 0 10 5 10 10 0 6 -4 10 -10 10 -5 0
-10 -4 -10 -10z"/>
<path d="M745 2321 c-3 -6 -12 -8 -18 -5 -7 4 -9 4 -5 -1 4 -4 0 -14 -10 -22
-16 -12 -16 -13 2 -6 13 4 17 3 12 -5 -4 -7 -2 -12 4 -12 7 0 10 6 7 13 -2 6
3 17 12 24 9 6 13 14 9 18 -3 3 -9 1 -13 -4z"/>
<path d="M676 2296 c6 -15 4 -17 -6 -11 -9 6 -11 4 -5 -4 5 -9 10 -10 18 -2 8
8 7 14 -2 24 -10 10 -11 8 -5 -7z"/>
<path d="M986 2278 c3 -4 9 -8 15 -8 5 0 9 4 9 8 0 5 -7 9 -15 9 -8 0 -12 -4
-9 -9z"/>
<path d="M1746 2267 c3 -10 9 -15 12 -12 3 3 0 11 -7 18 -10 9 -11 8 -5 -6z"/>
<path d="M695 2260 c3 -5 8 -10 11 -10 2 0 4 5 4 10 0 6 -5 10 -11 10 -5 0 -7
-4 -4 -10z"/>
<path d="M830 2240 c0 -5 5 -10 11 -10 5 0 7 5 4 10 -3 6 -8 10 -11 10 -2 0
-4 -4 -4 -10z"/>
<path d="M2030 2240 c0 -5 5 -10 11 -10 5 0 7 5 4 10 -3 6 -8 10 -11 10 -2 0
-4 -4 -4 -10z"/>
<path d="M883 2225 c0 -8 4 -12 8 -9 4 2 12 -3 17 -12 8 -15 10 -14 16 2 4 10
4 15 0 11 -4 -4 -15 0 -24 8 -14 13 -17 13 -17 0z"/>
<path d="M1750 2220 c6 -11 15 -18 21 -15 13 9 11 13 -12 25 -19 11 -20 10 -9
-10z"/>
<path d="M355 2089 c-4 -6 -5 -12 -2 -15 2 -3 7 2 10 11 7 17 1 20 -8 4z"/>
<path d="M376 2073 c-6 -14 -5 -15 5 -6 7 7 10 15 7 18 -3 3 -9 -2 -12 -12z"/>
<path d="M365 2039 c-3 -4 2 -6 10 -5 21 3 28 13 10 13 -9 0 -18 -4 -20 -8z"/>
<path d="M1580 2000 c0 -5 7 -7 15 -4 8 4 15 8 15 10 0 2 -7 4 -15 4 -8 0 -15
-4 -15 -10z"/>
<path d="M376 1965 c20 -30 24 -31 17 -6 -3 11 -11 22 -19 25 -11 4 -11 0 2
-19z"/>
<path d="M1475 1960 c-3 -5 -1 -10 4 -10 6 0 11 5 11 10 0 6 -2 10 -4 10 -3 0
-8 -4 -11 -10z"/>
<path d="M1957 1882 c-12 -13 -13 -21 -6 -32 9 -12 10 -11 5 4 -4 12 -2 17 7
13 8 -3 13 3 13 14 0 23 1 23 -19 1z"/>
<path d="M1105 1836 c-11 -7 -28 -12 -38 -10 -11 1 -16 0 -12 -4 3 -3 17 -7
31 -8 13 0 22 1 19 4 -2 3 3 11 13 18 23 18 12 18 -13 0z"/>
<path d="M1180 1839 c0 -5 -6 -7 -12 -3 -7 4 -9 3 -5 -1 13 -15 36 -14 30 1
-6 17 -13 18 -13 3z"/>
<path d="M696 1818 c3 -5 10 -6 15 -3 13 9 11 12 -6 12 -8 0 -12 -4 -9 -9z"/>
<path d="M766 1818 c3 -5 10 -6 15 -3 13 9 11 12 -6 12 -8 0 -12 -4 -9 -9z"/>
<path d="M1865 1820 c-3 -5 -1 -10 4 -10 6 0 11 5 11 10 0 6 -2 10 -4 10 -3 0
-8 -4 -11 -10z"/>
<path d="M860 1800 c6 -11 13 -20 16 -20 2 0 0 9 -6 20 -6 11 -13 20 -16 20
-2 0 0 -9 6 -20z"/>
<path d="M151 1774 c7 -8 6 -14 -1 -17 -6 -3 -6 -5 1 -3 17 3 20 33 3 33 -10
0 -11 -4 -3 -13z"/>
<path d="M1788 1753 c6 -2 10 -9 7 -14 -4 -5 1 -6 10 -2 13 5 14 7 3 14 -7 5
-17 8 -23 8 -5 0 -4 -3 3 -6z"/>
<path d="M1726 1733 c-4 -5 -12 -8 -17 -8 -5 0 -9 -3 -9 -7 0 -29 2 -31 11
-15 6 9 14 15 20 12 5 -4 9 1 9 9 0 18 -3 20 -14 9z"/>
<path d="M1639 1687 c-1 -4 -2 -10 -3 -14 -1 -5 -4 -13 -8 -18 -4 -6 1 -11 11
-11 10 0 17 7 16 18 -1 18 -14 37 -16 25z"/>
<path d="M1646 1621 c-3 -5 1 -14 9 -21 10 -9 15 -9 15 -1 0 6 -6 11 -12 11
-9 0 -8 4 2 10 9 6 10 10 3 10 -6 0 -14 -4 -17 -9z"/>
<path d="M1176 1528 c3 -5 10 -6 15 -3 13 9 11 12 -6 12 -8 0 -12 -4 -9 -9z"/>
<path d="M410 1500 c0 -5 5 -10 11 -10 5 0 7 5 4 10 -3 6 -8 10 -11 10 -2 0
-4 -4 -4 -10z"/>
<path d="M1188 1503 c7 -3 16 -2 19 1 4 3 -2 6 -13 5 -11 0 -14 -3 -6 -6z"/>
<path d="M523 1477 c-16 -19 -16 -20 0 -8 9 7 17 10 17 6 0 -4 6 -2 14 4 10 8
16 9 21 1 3 -5 12 -10 18 -10 13 1 -21 23 -40 26 -6 1 -20 -8 -30 -19z"/>
<path d="M1950 1489 c0 -5 5 -7 10 -4 6 3 10 8 10 11 0 2 -4 4 -10 4 -5 0 -10
-5 -10 -11z"/>
<path d="M613 1473 c0 -9 4 -10 12 -3 7 6 20 8 29 4 9 -3 16 -2 16 3 0 5 -13
9 -28 9 -17 0 -29 -5 -29 -13z"/>
<path d="M773 1463 c0 -9 4 -10 14 -2 7 6 13 12 13 14 0 1 -6 2 -13 2 -8 0
-14 -6 -14 -14z"/>
<path d="M17 1410 c6 -8 9 -26 7 -40 -3 -16 -1 -20 4 -12 5 7 15 12 22 10 7
-2 14 3 16 10 1 7 0 8 -2 3 -3 -6 -17 2 -31 17 -14 15 -21 20 -16 12z"/>
<path d="M75 1359 c-4 -6 -13 -8 -21 -5 -8 3 -17 -1 -21 -9 -5 -13 -7 -13 -18
2 -11 15 -13 -6 -14 -126 -1 -108 1 -141 10 -135 9 5 9 3 3 -7 -5 -8 -9 -24
-9 -36 -1 -21 19 -24 47 -7 7 5 8 3 2 -7 -10 -16 -15 -44 -7 -35 4 3 12 1 20
-6 7 -6 16 -8 20 -4 3 3 1 6 -5 6 -6 0 -9 8 -6 18 5 13 4 14 -4 3 -6 -8 -12
-9 -16 -3 -3 5 1 12 9 16 19 7 28 -9 27 -48 -1 -31 -1 -31 12 -7 12 21 14 22
20 5 4 -10 1 -21 -6 -26 -9 -5 -10 -8 -1 -8 7 0 17 8 22 18 8 13 9 10 6 -16
-2 -19 0 -30 6 -26 5 3 7 9 4 14 -3 5 0 12 6 16 8 4 9 3 5 -5 -4 -6 0 -14 8
-17 22 -8 20 -25 -1 -17 -10 3 -15 3 -11 -1 3 -4 14 -9 25 -11 10 -1 17 -8 15
-15 -1 -6 2 -9 8 -5 8 5 7 11 -1 21 -6 8 -8 14 -3 14 5 0 0 7 -10 15 -11 8
-16 15 -10 15 15 -1 49 -30 35 -30 -11 0 -11 -3 -2 -14 7 -8 21 -13 32 -11 12
3 19 -2 19 -12 0 -13 -3 -13 -15 -3 -13 11 -14 10 -9 -3 6 -16 39 -17 63 -3
10 7 12 3 6 -15 -3 -13 -3 -19 2 -13 13 18 53 24 53 8 0 -8 5 -14 11 -14 5 0
8 4 5 9 -4 5 2 8 11 7 10 -2 22 2 26 8 6 7 7 4 3 -6 -3 -12 0 -18 9 -18 18 0
19 -21 2 -39 -10 -11 -9 -12 3 -5 8 5 21 9 28 10 8 2 17 6 20 10 4 4 -1 4 -11
1 -11 -4 -16 -3 -12 4 4 5 1 18 -7 27 -11 15 -11 15 3 5 9 -7 20 -9 24 -5 5 4
5 2 1 -5 -10 -18 28 -35 44 -20 10 10 10 8 1 -10 -13 -26 2 -41 24 -23 12 10
15 10 15 -1 1 -8 7 -3 14 11 8 14 12 29 9 35 -4 6 -2 6 3 2 5 -5 10 -13 10
-18 3 -22 5 -23 14 -9 8 12 10 12 10 1 0 -11 3 -11 15 -1 18 15 36 4 28 -17
-5 -12 -3 -14 7 -8 10 6 12 4 7 -9 -4 -10 -3 -15 3 -11 6 3 8 18 4 33 l-5 27
16 -25 c9 -14 14 -17 11 -8 -3 10 -1 20 5 23 5 4 9 3 8 -2 -3 -20 2 -34 11
-28 6 4 8 10 5 15 -3 5 -1 11 4 15 6 3 8 -3 6 -14 -2 -11 3 -25 10 -31 11 -10
13 -6 9 17 -4 24 -2 26 9 12 13 -17 80 -22 70 -5 -3 5 0 6 8 4 8 -3 13 -11 12
-17 -4 -17 14 -13 21 5 3 8 2 13 -2 10 -5 -3 -9 1 -9 9 0 11 4 12 13 4 7 -6
18 -8 24 -4 5 3 10 0 10 -9 0 -8 8 -13 18 -12 9 2 21 -2 25 -8 5 -6 6 0 2 14
-6 24 -5 24 9 6 9 -11 16 -16 16 -10 0 5 9 15 19 21 16 10 22 9 33 -5 11 -15
11 -16 -3 -4 -13 10 -18 10 -28 -1 -9 -11 -4 -14 23 -13 31 1 33 3 24 21 -11
20 -11 20 11 1 11 -11 21 -16 21 -12 0 4 8 2 18 -3 14 -7 19 -6 19 3 0 8 -10
12 -25 10 -13 -1 -21 1 -17 4 3 4 14 7 23 7 9 0 16 6 14 13 -1 8 2 11 8 7 6
-3 8 -10 5 -15 -7 -11 30 -32 39 -22 4 3 11 0 16 -8 7 -11 9 -10 7 7 0 12 -5
19 -9 17 -4 -3 -8 -1 -8 5 0 11 61 8 81 -4 7 -5 10 -4 6 2 -4 6 0 14 9 17 12
5 14 1 9 -17 -4 -12 -3 -17 2 -11 4 6 18 14 31 18 25 8 30 23 7 23 -8 0 -12
-4 -9 -9 3 -4 0 -8 -5 -8 -6 0 -11 7 -11 16 0 9 6 14 13 11 6 -2 20 0 31 5 14
8 17 7 11 -3 -5 -8 -4 -10 3 -5 7 4 12 1 12 -6 0 -8 5 -6 11 5 6 9 15 14 21
11 7 -4 8 -2 4 5 -6 9 -11 9 -22 0 -8 -7 -14 -7 -14 -1 0 5 7 15 15 22 10 8
13 20 9 34 -6 19 -5 20 12 6 17 -13 18 -13 8 0 -7 8 -10 32 -9 53 3 35 2 37
-10 20 -10 -13 -10 -20 -2 -25 6 -4 8 -10 4 -15 -13 -13 -26 19 -16 39 5 10 6
18 2 19 -4 0 1 4 12 9 17 7 17 9 3 9 -10 1 -18 6 -18 11 0 13 6 13 32 -1 13
-7 23 -8 30 -1 7 7 3 14 -11 22 -12 6 -18 16 -15 22 4 6 3 8 -3 5 -6 -4 -16 0
-23 8 -10 12 -10 15 0 15 9 0 7 8 -5 26 -12 19 -14 29 -5 39 8 9 8 20 2 31 -8
15 -9 15 -15 0 -5 -11 -3 -15 4 -10 7 4 10 1 7 -7 -3 -8 -11 -13 -17 -11 -8 1
-6 -8 4 -27 20 -39 19 -52 -1 -23 -8 12 -20 22 -26 22 -7 0 -4 -6 7 -13 12
-10 14 -16 7 -21 -7 -4 -12 -2 -12 4 0 7 -7 10 -15 7 -8 -4 -17 -2 -20 3 -3 5
-14 7 -25 5 -17 -3 -24 5 -22 26 1 10 -47 4 -59 -8 -9 -9 -8 -11 2 -10 8 2 20
6 27 10 6 5 12 6 12 3 0 -2 3 -13 6 -23 5 -14 4 -15 -4 -4 -8 12 -13 12 -25 2
-10 -8 -17 -9 -22 -1 -3 5 -11 10 -16 10 -6 0 -8 -4 -5 -8 6 -11 -25 -9 -43 3
-11 6 -13 4 -7 -10 6 -18 6 -18 -15 1 -19 16 -21 17 -16 2 4 -12 2 -15 -8 -11
-8 3 -13 8 -10 12 2 4 -2 8 -10 8 -8 0 -12 -4 -9 -9 10 -15 -9 -8 -23 10 -8 9
-12 12 -9 5 4 -7 -1 -11 -14 -10 -11 1 -20 6 -20 12 0 5 -5 3 -10 -5 -5 -8
-10 -19 -10 -25 0 -5 4 -4 9 3 6 11 10 10 15 -4 4 -10 4 -15 0 -11 -4 4 -13 2
-21 -5 -11 -9 -13 -8 -11 2 2 7 -3 15 -11 18 -9 3 -11 0 -6 -8 5 -8 4 -11 -3
-6 -5 3 -12 3 -15 -1 -2 -5 -2 -3 -1 4 2 7 -1 15 -6 18 -6 4 -10 -1 -10 -9 0
-10 -6 -13 -17 -9 -11 5 -14 3 -8 -6 6 -10 3 -11 -13 -2 -15 8 -23 7 -31 -3
-6 -7 -8 -16 -4 -20 4 -4 -1 -4 -12 0 -12 5 -14 9 -7 12 9 3 10 8 2 17 -8 10
-3 12 26 9 20 -2 34 -1 31 3 -3 3 -20 7 -38 8 -24 2 -33 -2 -36 -16 -3 -11 -9
-19 -14 -19 -12 0 -11 7 2 33 9 20 9 20 -4 5 -8 -10 -22 -18 -32 -18 -15 0
-16 2 -4 18 13 15 12 16 -4 3 -12 -10 -15 -17 -7 -25 5 -5 10 -17 10 -26 0 -9
-5 -6 -13 9 -6 13 -15 22 -18 20 -3 -2 -13 2 -22 10 -17 13 -18 13 -21 -11 -1
-14 -24 -18 -41 -8 -14 8 -38 6 -54 -4 -9 -6 -12 -5 -8 1 4 5 -9 10 -31 11
-59 2 -71 5 -67 13 8 12 -22 18 -34 6 -6 -6 -11 -7 -11 -1 0 5 -5 2 -10 -6 -6
-10 -10 -11 -10 -2 0 6 -7 12 -15 12 -14 0 -20 13 -15 35 1 6 -2 7 -6 3 -4 -4
-14 -2 -23 5 -12 9 -11 7 2 -13 9 -13 17 -29 17 -35 0 -5 -4 -4 -9 4 -11 17
-41 24 -41 9 0 -5 -7 -2 -16 6 -8 9 -20 13 -26 10 -7 -4 -8 -2 -4 4 4 7 3 12
-3 12 -5 0 -14 12 -20 28 -7 17 -10 19 -7 6 2 -16 -1 -21 -12 -20 -9 2 -18 9
-20 17 -3 11 -1 11 8 -1 9 -12 11 -12 8 -1 -2 8 -12 15 -21 17 -9 1 -15 -2
-12 -7 4 -5 -1 -6 -9 -3 -9 3 -14 10 -11 14 6 10 -24 22 -36 15 -11 -7 -23 40
-15 60 3 8 3 15 0 15 -2 0 -9 -10 -14 -22 -8 -21 -9 -20 -9 10 -1 17 -6 32
-12 32 -5 0 -7 4 -4 10 4 6 -1 7 -12 3 -16 -6 -16 -5 -4 10 7 9 11 17 8 17 -3
0 -9 -5 -12 -11z m19 -45 c5 -14 4 -15 -9 -4 -17 14 -19 20 -6 20 5 0 12 -7
15 -16z m1239 -198 c3 3 10 -3 16 -14 6 -11 7 -22 4 -26 -3 -3 -1 -6 6 -6 8 0
10 7 6 20 -9 29 2 25 48 -17 23 -20 32 -33 22 -29 -34 14 -50 12 -49 -6 1 -10
-2 -18 -7 -18 -5 0 -9 9 -9 19 0 17 -25 36 -42 33 -4 -1 -4 6 -1 15 4 11 3 14
-6 9 -7 -5 -10 -2 -9 6 2 8 -6 12 -22 11 -22 -2 -23 -2 -5 6 11 5 25 5 31 0 6
-5 13 -6 17 -3z m-608 -8 c5 4 5 1 1 -5 -10 -18 -23 -16 -30 3 -5 13 -4 14 7
6 8 -7 18 -8 22 -4z m335 -4 c0 -2 -7 -4 -15 -4 -8 0 -15 4 -15 10 0 5 7 7 15
4 8 -4 15 -8 15 -10z m-1029 -66 c-10 -11 -11 -9 -5 6 6 15 4 17 -6 11 -9 -6
-11 -4 -5 4 5 9 10 10 18 2 8 -8 7 -14 -2 -23z m1364 -140 c5 4 5 1 1 -6 -6
-10 -11 -10 -22 -1 -8 6 -14 14 -14 16 0 3 6 0 13 -6 8 -6 18 -7 22 -3z
m-1050 -17 c3 -5 2 -12 -3 -15 -5 -3 -9 1 -9 9 0 17 3 19 12 6z m1019 1 c3 -5
-1 -9 -9 -9 -8 0 -12 4 -9 9 3 4 7 8 9 8 2 0 6 -4 9 -8z m-94 -42 c0 -5 -5
-10 -11 -10 -5 0 -7 5 -4 10 3 6 8 10 11 10 2 0 4 -4 4 -10z m-93 -29 c0 -11
-5 -18 -9 -15 -4 3 -5 11 -1 19 7 21 12 19 10 -4z m-603 -7 c3 -8 2 -12 -3 -9
-5 3 -12 1 -16 -5 -3 -5 -12 -10 -18 -10 -7 0 -4 6 5 14 10 7 15 16 11 19 -3
4 -2 7 4 7 6 0 14 -7 17 -16z m241 -3 c3 -5 0 -13 -6 -17 -7 -4 -9 -3 -5 4 3
5 0 13 -6 15 -9 4 -10 6 -1 6 6 1 14 -3 18 -8z m142 -6 c0 -8 -4 -12 -9 -9 -5
3 -6 10 -3 15 9 13 12 11 12 -6z"/>
<path d="M1374 1081 c0 -11 5 -17 13 -14 10 4 11 9 2 19 -15 18 -15 18 -15 -5z"/>
<path d="M2355 1349 c-4 -5 -4 -13 -1 -16 3 -4 6 0 6 8 0 11 2 11 10 -1 6 -9
10 -10 10 -3 0 17 -17 25 -25 12z"/>
<path d="M146 1262 c-3 -5 1 -9 9 -9 8 0 12 4 9 9 -3 4 -7 8 -9 8 -2 0 -6 -4
-9 -8z"/>
<path d="M1715 1240 c-3 -5 -1 -10 4 -10 6 0 11 5 11 10 0 6 -2 10 -4 10 -3 0
-8 -4 -11 -10z"/>
<path d="M1435 1221 c-6 -11 13 -26 22 -17 4 3 1 6 -6 6 -7 0 -9 5 -6 10 3 6
4 10 1 10 -3 0 -7 -4 -11 -9z"/>
<path d="M280 1186 c0 -2 6 -9 14 -15 10 -9 17 -7 27 6 13 16 12 17 -3 4 -12
-9 -18 -10 -18 -2 0 6 -4 11 -10 11 -5 0 -10 -2 -10 -4z"/>
<path d="M1542 1186 c2 -1 10 -7 19 -14 13 -10 19 -10 27 1 8 9 4 13 -19 13
-17 1 -29 1 -27 0z"/>
<path d="M326 1162 c-3 -5 1 -9 9 -9 8 0 12 4 9 9 -3 4 -7 8 -9 8 -2 0 -6 -4
-9 -8z"/>
<path d="M1295 1160 c-3 -5 -1 -10 4 -10 6 0 11 5 11 10 0 6 -2 10 -4 10 -3 0
-8 -4 -11 -10z"/>
<path d="M431 1147 c-8 -10 -7 -14 2 -14 8 0 14 6 14 14 0 7 -1 13 -2 13 -2 0
-8 -6 -14 -13z"/>
<path d="M1160 1150 c-8 -5 -12 -11 -10 -14 3 -2 14 2 24 10 22 15 10 19 -14
4z"/>
<path d="M513 1143 c4 -6 2 -13 -5 -15 -8 -3 -6 -7 5 -11 23 -9 30 8 10 24 -9
8 -14 9 -10 2z"/>
<path d="M556 1134 c-8 -20 -8 -24 2 -24 4 0 8 9 9 20 2 24 -3 26 -11 4z"/>
<path d="M584 1129 c1 -7 13 -14 27 -16 18 -2 20 -1 9 6 -8 5 -17 8 -21 5 -4
-2 -10 1 -12 6 -3 6 -4 5 -3 -1z"/>
<path d="M660 1123 c0 -16 -2 -16 -11 -3 -8 12 -10 12 -7 1 2 -8 11 -15 20
-17 11 -1 14 4 11 17 -7 24 -13 25 -13 2z"/>
<path d="M718 1133 c7 -3 16 -2 19 1 4 3 -2 6 -13 5 -11 0 -14 -3 -6 -6z"/>
<path d="M1800 1121 c0 -6 4 -13 10 -16 6 -3 7 1 4 9 -7 18 -14 21 -14 7z"/>
<path d="M1884 1122 c4 -7 1 -12 -6 -12 -7 -1 -3 -6 10 -13 12 -7 19 -17 15
-22 -4 -4 -2 -5 5 -1 13 8 2 39 -20 52 -7 4 -8 3 -4 -4z"/>
<path d="M2575 1060 c3 -5 8 -10 11 -10 2 0 4 5 4 10 0 6 -5 10 -11 10 -5 0
-7 -4 -4 -10z"/>
<path d="M1900 1050 c-8 -5 -10 -10 -5 -10 6 0 17 5 25 10 8 5 11 10 5 10 -5
0 -17 -5 -25 -10z"/>
<path d="M1434 975 c0 -35 2 -41 10 -28 5 10 16 23 24 29 12 9 13 13 2 19 -8
5 -11 4 -7 -2 4 -6 0 -14 -9 -17 -11 -4 -15 -2 -11 7 3 8 2 19 -2 26 -4 7 -8
-9 -7 -34z"/>
<path d="M1893 995 c0 -8 4 -12 9 -9 5 3 6 10 3 15 -9 13 -12 11 -12 -6z"/>
<path d="M2476 978 c5 -7 2 -9 -9 -5 -11 4 -14 2 -10 -8 4 -11 10 -12 24 -4
23 12 24 15 3 23 -10 4 -13 2 -8 -6z"/>
<path d="M1890 961 c0 -5 7 -12 16 -15 14 -5 15 -4 4 9 -14 17 -20 19 -20 6z"/>
<path d="M2065 939 c-3 -3 3 -9 13 -11 11 -3 19 0 19 7 0 13 -25 16 -32 4z"/>
<path d="M1446 923 c-6 -14 -5 -15 5 -6 7 7 10 15 7 18 -3 3 -9 -2 -12 -12z"/>
<path d="M2066 911 c-4 -5 -2 -12 3 -15 5 -4 12 -2 15 3 4 5 2 12 -3 15 -5 4
-12 2 -15 -3z"/>
<path d="M1889 908 c-5 -18 -6 -38 -1 -34 7 8 12 36 6 36 -2 0 -4 -1 -5 -2z"/>
<path d="M1420 891 c0 -10 19 -25 25 -20 1 2 -3 10 -11 17 -8 7 -14 8 -14 3z"/>
<path d="M2334 879 c-4 -7 -3 -9 4 -5 5 3 13 0 15 -6 4 -9 6 -10 6 -1 1 17
-16 25 -25 12z"/>
<path d="M2538 884 c-9 -8 9 -34 23 -34 5 0 9 5 9 11 0 5 -4 8 -9 4 -5 -3 -11
2 -13 11 -2 9 -6 12 -10 8z"/>
<path d="M1495 860 c-3 -6 1 -7 9 -4 18 7 21 14 7 14 -6 0 -13 -4 -16 -10z"/>
<path d="M1886 851 c-4 -5 -3 -17 1 -27 5 -13 3 -15 -7 -9 -9 5 -11 4 -6 -4 6
-9 11 -9 22 0 11 9 12 14 3 19 -6 4 -8 13 -5 19 4 6 5 11 2 11 -3 0 -7 -4 -10
-9z"/>
<path d="M403 833 c4 -6 4 -13 0 -16 -5 -2 -3 -2 4 -1 6 2 14 -2 17 -9 3 -8 5
-8 5 -1 1 6 -7 18 -16 25 -9 8 -14 9 -10 2z"/>
<path d="M2235 810 c-3 -5 -1 -10 4 -10 6 0 11 5 11 10 0 6 -2 10 -4 10 -3 0
-8 -4 -11 -10z"/>
<path d="M1221 794 c0 -11 3 -14 6 -6 3 7 2 16 -1 19 -3 4 -6 -2 -5 -13z"/>
<path d="M490 785 c-11 -13 -10 -14 4 -9 9 3 16 10 16 15 0 13 -6 11 -20 -6z"/>
<path d="M645 791 c-3 -5 -17 -8 -30 -5 -14 2 -25 0 -25 -6 0 -6 5 -8 10 -5 6
3 10 0 10 -7 0 -9 3 -10 8 -2 4 6 15 10 25 8 9 -1 15 1 12 6 -3 5 1 11 7 13 9
4 10 6 1 6 -6 1 -14 -3 -18 -8z"/>
<path d="M1995 770 c3 -5 8 -10 11 -10 2 0 4 5 4 10 0 6 -5 10 -11 10 -5 0 -7
-4 -4 -10z"/>
<path d="M2500 765 c8 -11 15 -21 16 -23 1 -2 5 5 8 15 4 9 4 14 0 10 -4 -4
-14 -1 -23 6 -14 11 -15 10 -1 -8z"/>
<path d="M1980 724 c0 -19 48 -46 56 -32 5 7 3 8 -6 3 -10 -6 -12 -4 -7 8 4
12 2 14 -10 10 -8 -3 -19 0 -24 8 -5 8 -9 9 -9 3z"/>
<path d="M2400 640 c-9 -6 -10 -10 -3 -10 6 0 15 5 18 10 8 12 4 12 -15 0z"/>
<path d="M1646 573 c-6 -14 -5 -15 5 -6 7 7 10 15 7 18 -3 3 -9 -2 -12 -12z"/>
<path d="M2265 569 c-4 -6 -5 -12 -2 -15 2 -3 7 2 10 11 7 17 1 20 -8 4z"/>
<path d="M247 539 c7 -7 15 -10 18 -7 3 3 -2 9 -12 12 -14 6 -15 5 -6 -5z"/>
<path d="M1315 520 c-4 -6 -16 -8 -27 -4 -14 4 -19 2 -16 -7 7 -20 51 -17 54
4 3 19 -2 22 -11 7z"/>
<path d="M1345 521 c-3 -5 -2 -12 3 -15 5 -3 9 1 9 9 0 17 -3 19 -12 6z"/>
<path d="M2155 509 c-4 -6 -5 -12 -2 -15 2 -3 7 2 10 11 7 17 1 20 -8 4z"/>
<path d="M1705 342 c-13 -9 -17 -32 -6 -32 5 0 11 9 14 20 6 22 6 22 -8 12z"/>
<path d="M521 316 c-9 -11 -9 -16 1 -22 7 -4 10 -4 6 1 -4 4 -3 14 3 22 6 7 9
13 6 13 -2 0 -10 -6 -16 -14z"/>
<path d="M593 288 c1 -22 4 -25 19 -17 21 11 24 21 4 13 -8 -3 -16 2 -19 13
-3 10 -4 7 -4 -9z"/>
<path d="M1505 290 c-4 -6 -12 -7 -18 -4 -7 4 -9 4 -5 -1 4 -4 2 -15 -4 -24
-10 -12 -8 -12 8 1 13 12 24 14 30 8 6 -6 10 -3 11 10 2 21 -12 27 -22 10z"/>
<path d="M797 263 c-4 -3 -7 -11 -7 -17 0 -6 5 -5 12 2 6 6 9 14 7 17 -3 3 -9
2 -12 -2z"/>
<path d="M1780 249 c0 -5 -4 -8 -9 -4 -21 13 -35 -38 -19 -69 10 -19 9 -19 -4
-8 -26 21 -32 -4 -9 -33 11 -15 22 -21 26 -15 3 5 1 10 -5 10 -6 0 -8 5 -4 11
5 8 10 6 16 -5 6 -10 7 -20 4 -23 -6 -7 32 -63 42 -62 22 4 33 -3 29 -16 -4
-8 -2 -17 4 -20 5 -4 9 -3 8 2 -3 20 2 34 11 28 5 -3 7 -12 3 -20 -3 -8 -1
-15 5 -15 11 0 11 18 -2 38 -4 7 -5 16 -1 20 4 4 10 1 12 -5 3 -7 10 -13 15
-13 6 0 8 3 5 7 -4 3 -1 13 6 22 11 14 10 14 -5 2 -13 -9 -18 -10 -18 -2 0 9
-5 9 -20 1 -11 -6 -18 -16 -14 -21 4 -7 -1 -7 -15 0 -11 7 -21 17 -21 24 0 8
-3 8 -9 -1 -7 -11 -9 -11 -14 0 -3 9 2 14 14 15 11 1 19 -5 19 -13 0 -9 6 -14
13 -11 6 2 11 9 10 15 -2 7 4 9 14 5 12 -5 14 -3 8 8 -8 12 -6 12 8 0 15 -12
18 -10 27 14 6 16 14 23 22 19 7 -4 8 -3 4 5 -4 6 -12 9 -17 6 -5 -4 -14 5
-20 19 -8 16 -17 23 -28 19 -14 -4 -14 -3 -1 6 11 8 19 6 31 -11 9 -11 22 -18
30 -15 9 4 7 6 -6 6 -17 1 -17 3 -5 11 13 8 12 10 -3 10 -10 0 -15 5 -12 10 4
6 1 9 -7 8 -8 -2 -13 6 -12 20 1 12 -1 20 -5 17 -3 -4 -6 -11 -6 -16 0 -5 -4
-8 -10 -6 -5 1 -9 5 -8 9 2 4 -8 5 -22 2 -20 -3 -23 -1 -19 13 5 17 5 17 -6 1
-13 -22 -32 -24 -24 -3 4 8 3 15 0 15 -3 0 -6 -5 -6 -11z m25 -32 c19 -4 18
-5 -2 -6 -12 0 -25 4 -28 9 -4 6 -11 7 -17 4 -7 -4 -8 -2 -4 5 5 8 12 9 19 3
7 -6 21 -12 32 -15z m49 -18 c-10 -16 -23 -9 -21 10 1 15 4 17 14 9 7 -5 10
-14 7 -19z m-73 -32 c-10 -9 -11 -8 -5 6 3 10 9 15 12 12 3 -3 0 -11 -7 -18z
m-37 -13 c3 -8 2 -12 -4 -9 -6 3 -10 10 -10 16 0 14 7 11 14 -7z m137 -27
c-10 -9 -11 -8 -5 6 3 10 9 15 12 12 3 -3 0 -11 -7 -18z"/>
<path d="M835 160 c-3 -5 -1 -10 4 -10 6 0 11 5 11 10 0 6 -2 10 -4 10 -3 0
-8 -4 -11 -10z"/>
<path d="M1675 151 c-9 -15 15 -25 28 -12 9 9 7 10 -7 5 -13 -5 -17 -4 -12 4
4 7 5 12 2 12 -3 0 -7 -4 -11 -9z"/>
<path d="M795 140 c3 -5 8 -10 11 -10 2 0 4 5 4 10 0 6 -5 10 -11 10 -5 0 -7
-4 -4 -10z"/>
<path d="M894 136 c1 -8 5 -18 8 -22 4 -3 5 1 4 10 -1 8 -5 18 -8 22 -4 3 -5
-1 -4 -10z"/>
<path d="M1585 130 c-4 -11 -11 -17 -17 -14 -7 4 -8 2 -4 -5 4 -6 12 -9 17 -6
15 10 10 -2 -8 -16 -11 -10 -14 -10 -9 -1 4 7 1 12 -8 12 -10 0 -13 -6 -10
-15 4 -8 1 -15 -6 -15 -6 0 -8 5 -5 10 7 12 -23 9 -44 -4 -10 -6 -12 -5 -7 2
4 7 2 12 -3 12 -6 0 -11 -6 -11 -12 -1 -7 -8 -1 -16 15 -8 15 -17 27 -20 27
-8 0 0 -35 11 -42 5 -4 0 -6 -12 -5 -12 0 -19 5 -17 9 9 14 -9 9 -30 -9 -20
-17 -20 -17 -6 1 14 18 13 19 -2 13 -11 -4 -15 -2 -12 6 3 8 -5 13 -18 14 -13
1 -18 -1 -12 -5 13 -8 15 -44 2 -36 -5 3 -6 10 -3 15 4 5 -13 9 -37 10 -24 0
-52 2 -63 4 -11 2 -23 -1 -27 -8 -4 -6 -10 -8 -14 -4 -4 3 -3 12 2 20 5 7 1 4
-8 -6 -10 -11 -15 -23 -12 -29 3 -5 -3 -4 -14 3 -12 7 -18 17 -16 21 3 5 0 7
-8 6 -7 -2 -12 4 -10 12 3 11 -2 10 -17 -4 -11 -10 -27 -16 -36 -12 -9 3 -13
2 -10 -4 3 -6 2 -10 -4 -10 -6 0 -9 -6 -7 -12 1 -7 1 -10 -1 -5 -8 13 -25 7
-20 -7 4 -10 1 -13 -9 -9 -8 3 -14 2 -13 -3 3 -20 -2 -34 -12 -34 -8 0 -8 4
-2 13 6 6 9 20 8 30 -2 10 1 14 7 11 7 -4 8 -2 4 5 -4 6 -4 11 1 10 19 -3 30
2 30 14 0 8 -6 14 -13 14 -7 0 -10 -6 -8 -12 3 -6 -2 -12 -11 -12 -10 0 -14 6
-10 16 3 9 -5 3 -18 -13 -23 -28 -25 -29 -35 -10 -6 10 -14 15 -18 11 -4 -4 2
-15 15 -23 16 -12 20 -19 12 -27 -6 -6 -11 -16 -11 -22 0 -5 9 1 20 15 14 18
20 20 20 10 0 -9 -4 -20 -10 -26 -6 -6 53 -10 166 -11 133 -1 173 1 167 10 -5
9 -2 8 9 0 18 -16 97 -15 117 1 11 8 13 8 7 -2 -5 -9 3 -12 29 -12 20 0 34 4
31 8 -3 5 1 9 9 9 8 0 12 -4 10 -8 -3 -4 23 -6 56 -5 47 2 65 6 75 20 7 11 11
23 8 27 -3 5 3 9 13 10 16 0 16 1 -1 8 -18 7 -18 8 5 24 13 9 18 17 12 17 -7
0 -15 -4 -18 -10 -3 -5 -11 -10 -18 -10 -8 0 -8 3 1 12 7 7 12 17 12 23 0 5
-5 3 -11 -5 -9 -12 -10 -11 -6 5 3 15 -1 21 -13 21 -16 0 -16 -2 -3 -23 9 -13
12 -23 9 -23 -4 0 -2 -10 5 -21 9 -17 8 -20 -2 -14 -8 6 -10 4 -4 -5 6 -9 4
-11 -6 -5 -11 6 -12 5 -1 -6 15 -16 16 -29 2 -29 -5 0 -10 7 -10 15 0 8 -5 15
-10 15 -6 0 -10 -8 -8 -17 5 -28 -25 -25 -47 5 -18 26 -18 26 0 12 17 -14 18
-13 12 3 -4 11 -3 16 3 12 6 -4 9 -14 8 -22 -2 -9 3 -18 10 -20 7 -3 10 1 6
11 -3 9 0 18 8 21 15 6 17 36 4 73 -9 27 -23 28 -31 2z m28 -14 c4 -10 1 -13
-9 -9 -15 6 -19 23 -5 23 5 0 11 -7 14 -14z m-492 -48 c-10 -11 -11 -9 -5 7 6
16 5 18 -7 8 -7 -7 -20 -13 -28 -13 -10 0 -6 6 9 14 28 15 51 3 31 -16z m135
3 c1 -6 0 -7 -3 -1 -2 5 -9 8 -13 5 -5 -3 -11 -1 -14 4 -4 5 2 8 11 7 9 -2 18
-8 19 -15z m354 9 c0 -5 -4 -10 -10 -10 -5 0 -10 5 -10 10 0 6 5 10 10 10 6 0
10 -4 10 -10z m-613 -13 c0 -8 -6 -14 -14 -14 -9 0 -10 4 -2 14 6 7 12 13 14
13 1 0 2 -6 2 -13z m157 -5 c3 -5 -1 -9 -9 -9 -8 0 -12 4 -9 9 3 4 7 8 9 8 2
0 6 -4 9 -8z m66 2 c0 -8 -19 -13 -24 -6 -3 5 1 9 9 9 8 0 15 -2 15 -3z m310
-9 c0 -2 -9 -3 -19 -2 -11 0 -18 5 -15 9 4 6 34 0 34 -7z m-480 -33 c0 -5 -7
-9 -15 -9 -8 0 -12 4 -9 9 7 10 24 10 24 0z m155 -10 c-3 -3 -11 0 -18 7 -9
10 -8 11 6 5 10 -3 15 -9 12 -12z m360 0 c-3 -3 -11 0 -18 7 -9 10 -8 11 6 5
10 -3 15 -9 12 -12z"/>
<path d="M817 125 c-4 -8 -3 -16 1 -19 4 -3 9 4 9 15 2 23 -3 25 -10 4z"/>
<path d="M755 120 c-3 -5 -1 -10 4 -10 6 0 11 5 11 10 0 6 -2 10 -4 10 -3 0
-8 -4 -11 -10z"/>
<path d="M850 120 c-8 -5 -10 -10 -5 -10 6 0 17 5 25 10 8 5 11 10 5 10 -5 0
-17 -5 -25 -10z"/>
<path d="M925 119 c-4 -6 -5 -12 -2 -15 2 -3 7 2 10 11 7 17 1 20 -8 4z"/>
<path d="M1505 120 c-3 -5 -15 -10 -26 -10 -10 0 -19 -4 -19 -8 0 -15 38 -7
49 10 6 10 9 18 7 18 -3 0 -8 -4 -11 -10z"/>
<path d="M1522 110 c-12 -19 -11 -20 8 -8 11 7 20 16 20 20 0 15 -15 8 -28
-12z"/>
<path d="M1710 126 c0 -2 7 -7 16 -10 8 -3 12 -2 9 4 -6 10 -25 14 -25 6z"/>
<path d="M950 109 c0 -5 5 -7 10 -4 6 3 10 8 10 11 0 2 -4 4 -10 4 -5 0 -10
-5 -10 -11z"/>
<path d="M1405 110 c-4 -6 -11 -7 -17 -4 -7 4 -8 2 -4 -5 6 -9 11 -9 22 0 14
11 18 19 10 19 -3 0 -8 -5 -11 -10z"/>
<path d="M870 100 c0 -5 5 -10 10 -10 6 0 10 5 10 10 0 6 -4 10 -10 10 -5 0
-10 -4 -10 -10z"/>
<path d="M795 80 c3 -5 8 -10 11 -10 2 0 4 5 4 10 0 6 -5 10 -11 10 -5 0 -7
-4 -4 -10z"/>
<path d="M897 76 c-4 -10 -1 -13 8 -9 8 3 12 9 9 14 -7 12 -11 11 -17 -5z"/>
<path d="M921 55 c0 -5 3 -16 8 -23 7 -11 9 -10 14 3 4 9 3 14 -2 10 -5 -3
-12 1 -14 7 -3 7 -6 9 -6 3z"/>
</g>
</svg>
