<svg width="228" height="59" viewBox="0 0 228 59" fill="none" xmlns="http://www.w3.org/2000/svg">
<rect width="228" height="59" rx="10" fill="#0D606F"/>
<path d="M40.132 38.764C38.82 38.764 37.58 38.54 36.412 38.092C35.26 37.628 34.148 36.948 33.076 36.052L34.636 33.94C35.724 34.82 36.692 35.452 37.54 35.836C38.404 36.204 39.324 36.388 40.3 36.388C41.036 36.388 41.684 36.276 42.244 36.052C42.82 35.812 43.26 35.492 43.564 35.092C43.884 34.692 44.044 34.228 44.044 33.7C44.044 33.012 43.812 32.492 43.348 32.14C42.9 31.772 42.116 31.492 40.996 31.3L37.9 30.772C36.444 30.516 35.356 30.028 34.636 29.308C33.932 28.572 33.58 27.636 33.58 26.5C33.58 25.492 33.836 24.612 34.348 23.86C34.86 23.092 35.572 22.5 36.484 22.084C37.412 21.652 38.508 21.436 39.772 21.436C41.036 21.436 42.236 21.62 43.372 21.988C44.508 22.356 45.556 22.892 46.516 23.596L45.052 25.756C44.204 25.116 43.332 24.636 42.436 24.316C41.54 23.98 40.62 23.812 39.676 23.812C39.004 23.812 38.412 23.916 37.9 24.124C37.404 24.332 37.012 24.62 36.724 24.988C36.452 25.356 36.316 25.764 36.316 26.212C36.316 26.82 36.516 27.292 36.916 27.628C37.332 27.948 37.996 28.188 38.908 28.348L41.908 28.852C43.604 29.156 44.852 29.684 45.652 30.436C46.468 31.188 46.876 32.204 46.876 33.484C46.876 34.508 46.588 35.42 46.012 36.22C45.452 37.02 44.668 37.644 43.66 38.092C42.652 38.54 41.476 38.764 40.132 38.764ZM54.2937 38.74C53.0777 38.74 52.1577 38.46 51.5337 37.9C50.9097 37.324 50.5977 36.484 50.5977 35.38V28.636H48.1977V26.476H50.5977V23.164L53.3097 22.588V26.476H56.6457V28.636H53.3097V34.78C53.3097 35.372 53.4377 35.796 53.6937 36.052C53.9497 36.292 54.3817 36.412 54.9897 36.412C55.2617 36.412 55.5097 36.396 55.7337 36.364C55.9737 36.316 56.2697 36.236 56.6217 36.124V38.404C56.2857 38.516 55.9017 38.596 55.4697 38.644C55.0537 38.708 54.6617 38.74 54.2937 38.74ZM62.6952 38.716C61.8632 38.716 61.1192 38.564 60.4632 38.26C59.8232 37.94 59.3192 37.508 58.9512 36.964C58.5992 36.404 58.4232 35.764 58.4232 35.044C58.4232 34.324 58.6072 33.7 58.9752 33.172C59.3592 32.644 59.8952 32.236 60.5832 31.948C61.2712 31.66 62.0872 31.516 63.0312 31.516C63.5912 31.516 64.1432 31.58 64.6872 31.708C65.2312 31.82 65.7592 32.012 66.2712 32.284V30.94C66.2712 30.14 66.0392 29.54 65.5752 29.14C65.1272 28.74 64.4392 28.54 63.5112 28.54C63.0152 28.54 62.4792 28.62 61.9032 28.78C61.3432 28.924 60.7112 29.156 60.0072 29.476L59.0472 27.508C60.8072 26.692 62.4712 26.284 64.0392 26.284C65.6072 26.284 66.8152 26.668 67.6632 27.436C68.5272 28.188 68.9592 29.26 68.9592 30.652V38.5H66.2712V37.252C65.7592 37.748 65.2072 38.116 64.6152 38.356C64.0232 38.596 63.3832 38.716 62.6952 38.716ZM60.9672 34.996C60.9672 35.556 61.1912 35.996 61.6392 36.316C62.0872 36.636 62.6872 36.796 63.4392 36.796C63.9832 36.796 64.4872 36.716 64.9512 36.556C65.4312 36.38 65.8712 36.124 66.2712 35.788V33.844C65.8552 33.652 65.4232 33.508 64.9752 33.412C64.5272 33.316 64.0392 33.268 63.5112 33.268C62.7272 33.268 62.1032 33.42 61.6392 33.724C61.1912 34.028 60.9672 34.452 60.9672 34.996ZM72.2425 38.5V26.476H74.9545V29.068C75.3065 28.156 75.7625 27.46 76.3225 26.98C76.8825 26.5 77.5305 26.26 78.2665 26.26C78.4905 26.276 78.6905 26.3 78.8665 26.332C79.0425 26.348 79.2345 26.404 79.4425 26.5V28.876C79.2345 28.78 78.9945 28.708 78.7225 28.66C78.4665 28.612 78.2105 28.588 77.9545 28.588C77.2985 28.588 76.7065 28.764 76.1785 29.116C75.6665 29.468 75.2585 29.956 74.9545 30.58V38.5H72.2425ZM86.8484 38.74C85.6324 38.74 84.7124 38.46 84.0884 37.9C83.4644 37.324 83.1524 36.484 83.1524 35.38V28.636H80.7524V26.476H83.1524V23.164L85.8644 22.588V26.476H89.2004V28.636H85.8644V34.78C85.8644 35.372 85.9924 35.796 86.2484 36.052C86.5044 36.292 86.9364 36.412 87.5444 36.412C87.8164 36.412 88.0644 36.396 88.2884 36.364C88.5284 36.316 88.8244 36.236 89.1764 36.124V38.404C88.8404 38.516 88.4564 38.596 88.0244 38.644C87.6084 38.708 87.2164 38.74 86.8484 38.74ZM97.3285 38.5V21.7H104.841C105.977 21.7 106.961 21.924 107.793 22.372C108.641 22.804 109.297 23.412 109.761 24.196C110.225 24.98 110.457 25.892 110.457 26.932C110.457 27.924 110.225 28.812 109.761 29.596C109.297 30.38 108.641 30.996 107.793 31.444C106.961 31.876 105.977 32.092 104.841 32.092H100.209V38.5H97.3285ZM100.209 29.74H104.385C105.409 29.74 106.193 29.484 106.737 28.972C107.281 28.444 107.553 27.756 107.553 26.908C107.553 26.076 107.281 25.404 106.737 24.892C106.193 24.38 105.417 24.124 104.409 24.124H100.209V29.74ZM113.282 38.5V21.292L115.994 20.812V38.5H113.282ZM122.976 38.716C122.144 38.716 121.4 38.564 120.744 38.26C120.104 37.94 119.6 37.508 119.232 36.964C118.88 36.404 118.704 35.764 118.704 35.044C118.704 34.324 118.888 33.7 119.256 33.172C119.64 32.644 120.176 32.236 120.864 31.948C121.552 31.66 122.368 31.516 123.312 31.516C123.872 31.516 124.424 31.58 124.968 31.708C125.512 31.82 126.04 32.012 126.552 32.284V30.94C126.552 30.14 126.32 29.54 125.856 29.14C125.408 28.74 124.72 28.54 123.792 28.54C123.296 28.54 122.76 28.62 122.184 28.78C121.624 28.924 120.992 29.156 120.288 29.476L119.328 27.508C121.088 26.692 122.752 26.284 124.32 26.284C125.888 26.284 127.096 26.668 127.944 27.436C128.808 28.188 129.24 29.26 129.24 30.652V38.5H126.552V37.252C126.04 37.748 125.488 38.116 124.896 38.356C124.304 38.596 123.664 38.716 122.976 38.716ZM121.248 34.996C121.248 35.556 121.472 35.996 121.92 36.316C122.368 36.636 122.968 36.796 123.72 36.796C124.264 36.796 124.768 36.716 125.232 36.556C125.712 36.38 126.152 36.124 126.552 35.788V33.844C126.136 33.652 125.704 33.508 125.256 33.412C124.808 33.316 124.32 33.268 123.792 33.268C123.008 33.268 122.384 33.42 121.92 33.724C121.472 34.028 121.248 34.452 121.248 34.996ZM132.524 38.5V26.476H135.236V28.444C135.7 27.724 136.252 27.188 136.892 26.836C137.532 26.468 138.244 26.284 139.028 26.284C139.86 26.284 140.588 26.468 141.212 26.836C141.836 27.188 142.324 27.684 142.676 28.324C143.044 28.964 143.228 29.716 143.228 30.58V38.5H140.492V31.348C140.492 30.468 140.252 29.772 139.772 29.26C139.292 28.732 138.652 28.468 137.852 28.468C137.308 28.468 136.812 28.596 136.364 28.852C135.932 29.092 135.556 29.452 135.236 29.932V38.5H132.524ZM146.493 38.5V26.476H149.205V28.444C149.669 27.724 150.221 27.188 150.861 26.836C151.501 26.468 152.213 26.284 152.997 26.284C153.829 26.284 154.557 26.468 155.181 26.836C155.805 27.188 156.293 27.684 156.645 28.324C157.013 28.964 157.197 29.716 157.197 30.58V38.5H154.461V31.348C154.461 30.468 154.221 29.772 153.741 29.26C153.261 28.732 152.621 28.468 151.821 28.468C151.277 28.468 150.781 28.596 150.333 28.852C149.901 29.092 149.525 29.452 149.205 29.932V38.5H146.493ZM160.437 38.5V26.476H163.149V38.5H160.437ZM161.805 24.028C161.341 24.028 160.941 23.868 160.605 23.548C160.285 23.212 160.125 22.82 160.125 22.372C160.125 21.908 160.285 21.516 160.605 21.196C160.941 20.86 161.341 20.692 161.805 20.692C162.269 20.692 162.661 20.86 162.981 21.196C163.317 21.516 163.485 21.9 163.485 22.348C163.485 22.812 163.317 23.212 162.981 23.548C162.661 23.868 162.269 24.028 161.805 24.028ZM166.508 38.5V26.476H169.22V28.444C169.684 27.724 170.236 27.188 170.876 26.836C171.516 26.468 172.228 26.284 173.012 26.284C173.844 26.284 174.572 26.468 175.196 26.836C175.82 27.188 176.308 27.684 176.66 28.324C177.028 28.964 177.212 29.716 177.212 30.58V38.5H174.476V31.348C174.476 30.468 174.236 29.772 173.756 29.26C173.276 28.732 172.636 28.468 171.836 28.468C171.292 28.468 170.796 28.596 170.348 28.852C169.916 29.092 169.54 29.452 169.22 29.932V38.5H166.508ZM186.093 43.756C185.245 43.756 184.405 43.652 183.573 43.444C182.741 43.236 181.973 42.948 181.269 42.58L182.205 40.588C182.925 40.924 183.581 41.172 184.173 41.332C184.781 41.508 185.381 41.596 185.973 41.596C186.981 41.596 187.741 41.372 188.253 40.924C188.781 40.476 189.045 39.812 189.045 38.932V36.892C188.613 37.42 188.077 37.836 187.437 38.14C186.797 38.428 186.101 38.572 185.349 38.572C184.341 38.572 183.429 38.3 182.613 37.756C181.797 37.196 181.141 36.46 180.645 35.548C180.165 34.62 179.925 33.588 179.925 32.452C179.925 31.316 180.173 30.292 180.669 29.38C181.165 28.468 181.837 27.74 182.685 27.196C183.549 26.652 184.501 26.38 185.541 26.38C186.245 26.38 186.901 26.516 187.509 26.788C188.117 27.06 188.637 27.46 189.069 27.988V26.476H191.757V38.932C191.757 40.484 191.269 41.676 190.293 42.508C189.317 43.34 187.917 43.756 186.093 43.756ZM186.189 36.316C186.765 36.316 187.301 36.204 187.797 35.98C188.293 35.74 188.709 35.412 189.045 34.996V29.956C188.693 29.54 188.269 29.22 187.773 28.996C187.277 28.772 186.749 28.66 186.189 28.66C185.501 28.66 184.885 28.828 184.341 29.164C183.813 29.484 183.389 29.932 183.069 30.508C182.749 31.068 182.589 31.724 182.589 32.476C182.589 33.196 182.749 33.852 183.069 34.444C183.389 35.02 183.813 35.476 184.341 35.812C184.885 36.148 185.501 36.316 186.189 36.316Z" fill="white"/>
</svg>
